<?xml version="1.0" standalone="no"?>
<!DOCTYPE svg PUBLIC "-//W3C//DTD SVG 20010904//EN"
 "http://www.w3.org/TR/2001/REC-SVG-20010904/DTD/svg10.dtd">
<svg version="1.0" xmlns="http://www.w3.org/2000/svg"
 width="700.000000pt" height="700.000000pt" viewBox="0 0 700.000000 700.000000"
 preserveAspectRatio="xMidYMid meet">
<metadata>
Created by potrace 1.11, written by Peter Selinger 2001-2013
</metadata>
<g transform="translate(0.000000,700.000000) scale(0.100000,-0.100000)"
fill="#000000" stroke="none">
<path d="M1807 6418 c-47 -68 -102 -145 -121 -173 -20 -27 -105 -149 -190
-270 -85 -121 -160 -226 -167 -234 -10 -11 -10 -33 0 -105 7 -50 15 -101 16
-114 2 -12 8 -53 15 -90 6 -37 19 -119 29 -182 16 -110 19 -116 47 -130 275
-140 445 -379 507 -715 23 -125 16 -317 -17 -428 -32 -109 -87 -219 -158 -318
l-55 -76 63 -134 c35 -74 86 -182 113 -240 l51 -106 122 -6 c113 -5 252 -33
283 -56 5 -4 26 -14 45 -21 105 -40 309 -210 445 -370 33 -39 169 -195 196
-223 16 -18 22 -12 140 125 68 78 140 161 161 183 21 22 38 46 38 54 0 16
-114 170 -189 255 -86 99 -239 243 -326 308 -135 102 -275 165 -451 204 l-81
18 33 100 c95 282 131 563 99 791 -12 89 -54 245 -91 333 -137 334 -334 554
-692 772 -57 34 -101 68 -99 74 2 6 63 173 135 371 72 198 144 397 161 443 17
45 29 82 27 82 -2 0 -42 -55 -89 -122z"/>
<path d="M5116 6495 c9 -27 20 -59 24 -70 5 -11 29 -81 54 -155 64 -191 147
-429 190 -541 20 -53 36 -102 36 -108 0 -6 -21 -22 -47 -35 -71 -36 -220 -135
-288 -193 -206 -173 -338 -349 -448 -601 -142 -323 -146 -687 -12 -1073 20
-57 39 -111 42 -121 4 -12 -8 -20 -54 -32 -122 -34 -294 -105 -388 -160 -126
-73 -248 -183 -420 -380 -33 -38 -65 -74 -70 -80 -36 -39 -470 -543 -565 -656
-127 -152 -215 -256 -220 -260 -3 -3 -60 -71 -128 -152 l-122 -147 99 -257
c55 -141 103 -260 108 -265 5 -5 94 91 198 213 224 261 214 248 275 318 26 30
139 161 250 290 237 275 291 338 345 400 22 25 65 75 95 109 30 35 62 72 70
81 8 9 39 46 69 81 187 220 330 315 548 364 85 19 117 22 219 24 l81 1 61 128
c133 280 172 363 172 368 0 2 -18 29 -40 59 -22 30 -40 59 -40 65 0 5 -4 10
-8 10 -13 0 -88 158 -111 232 -65 215 -55 458 28 673 72 188 232 366 425 475
64 37 62 34 71 110 5 49 19 143 30 206 2 12 7 48 10 80 4 33 9 68 11 79 3 11
7 43 10 72 l6 51 -117 174 c-64 95 -161 238 -216 318 -55 80 -124 181 -154
225 -31 44 -64 91 -75 105 l-19 25 15 -50z"/>
<path d="M1380 2920 c0 -4 9 -17 19 -29 11 -12 34 -41 53 -64 163 -204 292
-331 385 -378 63 -32 74 -34 185 -38 l118 -3 58 -67 c31 -37 77 -91 102 -121
25 -29 50 -58 55 -64 6 -6 46 -54 90 -106 44 -52 92 -108 107 -125 15 -16 28
-33 28 -37 0 -5 7 -8 15 -8 8 0 15 3 15 8 0 4 10 18 23 32 12 14 64 75 116
135 94 111 130 153 165 193 18 21 18 22 -105 169 -67 81 -127 153 -133 158 -6
6 -33 37 -60 70 -129 158 -241 229 -416 266 -60 13 -820 21 -820 9z"/>
<path d="M4800 2915 c-152 -34 -286 -134 -505 -380 -44 -50 -82 -92 -85 -95
-3 -3 -35 -39 -70 -80 -36 -41 -67 -77 -70 -80 -11 -11 -88 -98 -135 -154 -27
-32 -58 -68 -68 -80 -11 -11 -38 -43 -62 -71 -63 -73 -370 -432 -420 -490 -23
-27 -124 -146 -223 -263 l-180 -213 99 -262 c55 -144 102 -269 105 -277 7 -19
-3 -29 259 280 53 63 116 137 138 164 23 27 73 86 111 130 38 45 88 104 112
131 94 112 240 283 279 330 60 71 232 273 269 316 17 20 49 58 71 84 72 86
236 279 259 305 12 14 54 64 94 111 l73 86 116 1 c165 2 213 21 328 135 63 62
335 373 335 382 0 12 -776 2 -830 -10z"/>
<path d="M4019 1157 c-52 -61 -106 -125 -120 -142 -15 -16 -95 -111 -179 -210
-84 -99 -171 -202 -195 -230 -24 -27 -57 -67 -75 -87 -18 -21 -30 -39 -29 -39
2 -1 90 -3 194 -4 l191 -2 78 201 c42 111 79 206 80 211 2 6 6 17 9 25 30 70
146 384 144 387 -2 2 -46 -48 -98 -110z"/>
</g>
</svg>
