<?xml version="1.0" encoding="UTF-8" standalone="no"?>
<!-- Created with Inkscape (http://www.inkscape.org/) -->

<svg
   xmlns:dc="http://purl.org/dc/elements/1.1/"
   xmlns:cc="http://creativecommons.org/ns#"
   xmlns:rdf="http://www.w3.org/1999/02/22-rdf-syntax-ns#"
   xmlns:svg="http://www.w3.org/2000/svg"
   xmlns="http://www.w3.org/2000/svg"
   xmlns:sodipodi="http://sodipodi.sourceforge.net/DTD/sodipodi-0.dtd"
   xmlns:inkscape="http://www.inkscape.org/namespaces/inkscape"
   width="100mm"
   height="16mm"
   viewBox="0 0 100 16"
   version="1.1"
   id="svg8"
   inkscape:version="0.92.3 (2405546, 2018-03-11)"
   sodipodi:docname="auctionLogoAv1.svg">
  <defs
     id="defs2" />
  <sodipodi:namedview
     id="base"
     pagecolor="#ffffff"
     bordercolor="#666666"
     borderopacity="1.0"
     inkscape:pageopacity="0.0"
     inkscape:pageshadow="2"
     inkscape:zoom="1.7111432"
     inkscape:cx="202.06611"
     inkscape:cy="104.42209"
     inkscape:document-units="mm"
     inkscape:current-layer="layer1"
     showgrid="false"
     inkscape:window-width="1920"
     inkscape:window-height="1017"
     inkscape:window-x="-8"
     inkscape:window-y="-8"
     inkscape:window-maximized="1"
     showguides="true"
     inkscape:guide-bbox="true"
     inkscape:snap-global="false" />
  <metadata
     id="metadata5">
    <rdf:RDF>
      <cc:Work
         rdf:about="">
        <dc:format>image/svg+xml</dc:format>
        <dc:type
           rdf:resource="http://purl.org/dc/dcmitype/StillImage" />
        <dc:title></dc:title>
      </cc:Work>
    </rdf:RDF>
  </metadata>
  <g
     inkscape:label="Layer 1"
     inkscape:groupmode="layer"
     id="layer1"
     transform="translate(0,-281)">
    <g
       id="g876"
       transform="matrix(0.5809465,0,0,0.5809465,57.490078,221.90263)">
      <g
         id="g865">
        <path
           style="fill:#db2432;fill-opacity:1;stroke:none;stroke-width:0.99999994px;stroke-linecap:butt;stroke-linejoin:miter;stroke-opacity:1"
           d="m 84.507812,392.33008 c -21.281676,0 -50.416015,8.88592 -50.416015,48.55664 0,39.67068 35.331831,46.17773 47.935547,46.17773 12.603711,0 49.794926,-3.82242 49.794926,-44.93945 0,-41.11703 -29.13205,-49.79492 -47.314458,-49.79492 z m -1.033203,20.04297 c 20.661821,0 21.693361,21.48877 21.693361,29.54687 0,8.05814 -4.95728,25 -21.693361,25 -16.736076,0 -22.109375,-15.08346 -22.109375,-28.51367 0,-13.43017 7.646099,-26.0332 22.109375,-26.0332 z"
           transform="scale(0.26458333)"
           id="path850"
           inkscape:connector-curvature="0" />
        <path
           style="fill:#db2432;fill-opacity:1;stroke:none;stroke-width:0.99999994px;stroke-linecap:butt;stroke-linejoin:miter;stroke-opacity:1"
           d="m -361.45508,385.87695 v 20.7461 h 14.02735 l -26.5918,78.89648 h 26.88281 l 4.96875,-18.99414 h 34.77149 l 5.55078,18.99414 h 27.17578 l -33.31055,-99.64258 z m 37.47852,21.74414 11.36328,38.63672 H -336.375 Z"
           transform="scale(0.26458333)"
           id="path832"
           inkscape:connector-curvature="0" />
        <path
           style="fill:#db2432;fill-opacity:1;stroke:none;stroke-width:0.26458332px;stroke-linecap:butt;stroke-linejoin:miter;stroke-opacity:1"
           d="m -71.068064,104.35087 h 6.833468 v 14.85212 c 0,1.5307 1.257355,4.50026 3.990743,4.50026 3.116061,0 4.318753,-2.58689 4.318753,-4.50026 v -14.85212 h 6.888136 v 15.96298 c 0,2.40538 -2.268714,8.5145 -11.384558,8.5145 -6.819802,0 -10.646542,-4.0085 -10.646542,-8.82884 0,-3.67232 0,-15.64864 0,-15.64864 z"
           id="path838"
           inkscape:connector-curvature="0"
           sodipodi:nodetypes="ccsssccssscc" />
        <path
           style="fill:#db2432;fill-opacity:1;stroke:none;stroke-width:0.26458332px;stroke-linecap:butt;stroke-linejoin:miter;stroke-opacity:1"
           d="m -22.687113,104.35087 v 5.02943 h 6.122787 v 19.07983 h 6.6147969 v -19.18916 h 6.0681194 v -4.9201 z"
           id="path840"
           inkscape:connector-curvature="0" />
        <path
           style="fill:#db2432;fill-opacity:1;stroke:none;stroke-width:0.26458332px;stroke-linecap:butt;stroke-linejoin:miter;stroke-opacity:1"
           d="m -1.2573581,104.35087 v 24.10926 h 6.6694646 v -24.10926 z"
           id="path842"
           inkscape:connector-curvature="0" />
        <path
           style="fill:#db2432;fill-opacity:1;stroke:none;stroke-width:0.26458332px;stroke-linecap:butt;stroke-linejoin:miter;stroke-opacity:1"
           d="m 38.376754,104.35087 v 24.10926 h 5.958784 v -15.14375 l 8.309499,15.14375 h 7.708151 v -24.10926 h -6.122789 v 15.03363 l -8.090823,-15.03363 z"
           id="path844"
           inkscape:connector-curvature="0" />
        <circle
           style="opacity:1;fill:#db2432;fill-opacity:1;fill-rule:nonzero;stroke:none;stroke-width:1.01806915;stroke-linecap:round;stroke-linejoin:round;stroke-miterlimit:4;stroke-dasharray:none;stroke-dashoffset:8.69291401;stroke-opacity:1;paint-order:fill markers stroke"
           id="path846"
           cx="68.553352"
           cy="124.26746"
           r="4.6202059" />
        <path
           style="fill:#db2432;fill-opacity:1;stroke:none;stroke-width:0.26458332px;stroke-linecap:butt;stroke-linejoin:miter;stroke-opacity:1"
           d="m -25.365832,109.87232 v -5.08411 c 0,0 -1.913371,-1.09335 -6.122788,-1.09335 -4.209415,0 -14.104276,2.07737 -14.104276,12.79225 0,10.71488 10.332201,12.40958 14.158944,12.40958 3.826743,0 6.177455,-0.87469 6.177455,-0.87469 v -5.46677 c 0,0 -1.585365,0.98402 -5.138767,0.98402 -3.553405,0 -8.145494,-1.96804 -8.145494,-7.05214 0,-5.0841 4.318751,-7.48948 7.762819,-7.48948 3.444068,0 5.412107,0.87469 5.412107,0.87469 z"
           id="path852"
           inkscape:connector-curvature="0" />
      </g>
    </g>
  </g>
</svg>
