<?xml version="1.0" encoding="UTF-8" standalone="no"?>
<!-- Created with Inkscape (http://www.inkscape.org/) -->

<svg
   xmlns:dc="http://purl.org/dc/elements/1.1/"
   xmlns:cc="http://creativecommons.org/ns#"
   xmlns:rdf="http://www.w3.org/1999/02/22-rdf-syntax-ns#"
   xmlns:svg="http://www.w3.org/2000/svg"
   xmlns="http://www.w3.org/2000/svg"
   xmlns:sodipodi="http://sodipodi.sourceforge.net/DTD/sodipodi-0.dtd"
   xmlns:inkscape="http://www.inkscape.org/namespaces/inkscape"
   width="100mm"
   height="25mm"
   viewBox="0 0 100 25"
   version="1.1"
   id="svg1396"
   sodipodi:docname="GMarketLogoAv1.svg"
   inkscape:version="0.92.3 (2405546, 2018-03-11)">
  <defs
     id="defs1390" />
  <sodipodi:namedview
     id="base"
     pagecolor="#ffffff"
     bordercolor="#666666"
     borderopacity="1.0"
     inkscape:pageopacity="0.0"
     inkscape:pageshadow="2"
     inkscape:zoom="0.30249023"
     inkscape:cx="-409.22046"
     inkscape:cy="370.72698"
     inkscape:document-units="mm"
     inkscape:current-layer="layer1"
     showgrid="false"
     showguides="true"
     inkscape:guide-bbox="true"
     inkscape:window-width="1920"
     inkscape:window-height="1017"
     inkscape:window-x="-8"
     inkscape:window-y="-8"
     inkscape:window-maximized="1" />
  <metadata
     id="metadata1393">
    <rdf:RDF>
      <cc:Work
         rdf:about="">
        <dc:format>image/svg+xml</dc:format>
        <dc:type
           rdf:resource="http://purl.org/dc/dcmitype/StillImage" />
        <dc:title></dc:title>
      </cc:Work>
    </rdf:RDF>
  </metadata>
  <g
     inkscape:label="Layer 1"
     inkscape:groupmode="layer"
     id="layer1"
     transform="translate(0,-272)">
    <g
       id="g2016"
       transform="matrix(0.54049142,0,0,0.54049142,-19.028556,255.67623)">
      <path
         inkscape:connector-curvature="0"
         id="path1986"
         d="m 110.10083,71.369165 h 6.12279 c 0,0 0,-9.51217 0,-16.07231 0,-6.56014 -4.9201,-6.56014 -6.01345,-6.56014 -1.09336,0 -12.956257,0 -17.439013,0 -4.482753,0 -6.778799,2.62406 -6.778799,5.84946 0,3.22539 0,16.78299 0,16.78299 h 6.286791 c 0,0 0,-13.06559 0,-15.03363 0,-1.96803 0.492008,-3.5534 2.678718,-3.5534 2.18671,0 3.116061,0 3.116061,0 v 18.58703 h 6.013452 v -18.47769 c 0,0 2.13204,0 3.49874,0 1.36669,0 2.62405,0.87468 2.62405,2.84272 0,1.96804 -0.0547,15.63497 -0.0547,15.63497"
         style="fill:#092e6e;fill-opacity:1;stroke:none;stroke-width:0.26458332px;stroke-linecap:butt;stroke-linejoin:miter;stroke-opacity:1" />
      <path
         inkscape:connector-curvature="0"
         id="path1990"
         d="m 120.65155,48.736738 v 4.154787 h 9.40304 c 3.44407,0 3.60805,1.749181 3.60805,4.04523 h -8.63771 c -2.56939,0 -6.01308,1.311958 -6.01308,6.942727 0,5.630781 2.78779,7.489465 6.06785,7.489465 h 14.54175 V 55.351321 c 0,-4.10007 -2.24141,-6.614583 -6.99751,-6.614583 z m 6.50554,12.300024 h 6.50555 v 6.341732 h -6.1774 c -1.58537,0 -2.46031,-0.819971 -2.46031,-3.334679 0,-2.514722 1.20282,-3.007053 2.13216,-3.007053 z"
         style="fill:#092e6e;fill-opacity:1;stroke:none;stroke-width:0.26458332px;stroke-linecap:butt;stroke-linejoin:miter;stroke-opacity:1" />
      <path
         sodipodi:nodetypes="ccssccsscc"
         inkscape:connector-curvature="0"
         id="path1992"
         d="m 149.95362,71.369165 h -6.11216 v -15.85364 c 0,-3.60807 1.6222,-6.77881 7.57275,-6.77881 1.72779,0 3.56466,0 5.81022,0 v 4.10009 h -4.64619 c -1.92995,0 -2.62462,1.33078 -2.62462,2.53347 0,1.20269 0,15.99889 0,15.99889 z"
         style="fill:#092e6e;fill-opacity:1;stroke:none;stroke-width:0.26458332px;stroke-linecap:butt;stroke-linejoin:miter;stroke-opacity:1" />
      <path
         inkscape:connector-curvature="0"
         id="path1994"
         d="m 159.61034,48.736715 v 22.63245 h 5.5278 v -8.46949 l 7.19,8.46949 h 6.68748 l -10.47576,-12.29642 9.97323,-10.33603 h -6.18495 l -7.22866,7.74608 v -7.74608 z"
         style="fill:#092e6e;fill-opacity:1;stroke:none;stroke-width:0.26458332px;stroke-linecap:butt;stroke-linejoin:miter;stroke-opacity:1" />
      <path
         inkscape:connector-curvature="0"
         id="path1996"
         d="m 200.7016,48.736715 v 4.07376 h 6.80344 v 18.55869 h 5.99167 v -18.52003 h 6.72613 v -4.11242 z"
         style="fill:#092e6e;fill-opacity:1;stroke:none;stroke-width:0.26458332px;stroke-linecap:butt;stroke-linejoin:miter;stroke-opacity:1" />
      <path
         inkscape:connector-curvature="0"
         id="path1998"
         d="m 184.81404,48.736738 c -2.35802,0 -5.87561,2.025211 -5.87561,5.968111 v 11.364682 c 0,2.744571 1.89403,5.299419 6.26215,5.299416 h 13.45241 V 67.44774 h -10.55336 c -2.42674,0 -3.28559,-0.744786 -3.28559,-4.673615 h 9.16275 c 3.93125,0 5.04001,-2.859855 5.41052,-4.242636 0.37052,-1.382779 0.70267,-4.293651 -0.7276,-6.975801 -1.43027,-2.68215 -3.87263,-2.81895 -6.03736,-2.81895 z m 2.16473,3.996656 h 4.73511 c 1.3143,0 1.79782,1.140126 1.79782,2.183847 v 1.681551 c 0,1.21766 -0.46419,2.242241 -1.89446,2.242241 h -6.68744 c 0,0 -0.077,-2.551412 -0.077,-3.7884 0,-1.23699 0.6957,-2.319239 2.12597,-2.319239 z"
         style="fill:#092e6e;fill-opacity:1;stroke:none;stroke-width:0.26458332px;stroke-linecap:butt;stroke-linejoin:miter;stroke-opacity:1" />
      <path
         sodipodi:nodetypes="cssssssscscssscccc"
         inkscape:connector-curvature="0"
         id="path2004"
         d="m 60.29852,48.736715 h 13.830937 c 4.209418,0 6.013453,2.18672 6.013453,5.24811 v 13.33893 c 0,1.5307 0.437343,2.29604 -2.40538,4.04541 -2.842723,1.74937 -8.692171,4.70143 -18.587032,4.70143 -9.894864,0 -23.944471,-7.81749 -23.944471,-22.63245 0,-14.81495 12.792252,-22.851111 24.983156,-22.851111 12.190907,0 16.509659,5.029432 17.603015,5.958781 1.093354,0.92935 1.312024,3.60807 -0.218673,5.35744 -1.530696,1.74937 -3.662738,2.62405 -5.740111,1.58536 -2.077374,-1.03868 -4.428088,-3.93607 -10.933549,-3.93607 -6.505461,0 -14.432285,4.31875 -14.432285,13.8856 0,9.56686 8.309498,13.94028 13.776272,13.94028 5.466775,0 7.27081,-1.31203 9.348184,-2.29605 -0.05467,-1.80403 0,-6.50546 0,-6.50546 l -9.211514,0.0273 z"
         style="fill:#0ea13c;fill-opacity:1;stroke:none;stroke-width:0.26458332px;stroke-linecap:butt;stroke-linejoin:miter;stroke-opacity:1" />
      <circle
         r="4.9290833"
         cy="53.661495"
         cx="60.275475"
         id="path2006"
         style="opacity:1;fill:#092e6e;fill-opacity:1;fill-rule:nonzero;stroke:none;stroke-width:1.00182462;stroke-linecap:round;stroke-linejoin:round;stroke-miterlimit:4;stroke-dasharray:none;stroke-dashoffset:8.69291401;stroke-opacity:1;paint-order:fill markers stroke" />
    </g>
  </g>
</svg>
