<?xml version="1.0" encoding="UTF-8" standalone="no"?>
<svg
   xmlns:dc="http://purl.org/dc/elements/1.1/"
   xmlns:cc="http://creativecommons.org/ns#"
   xmlns:rdf="http://www.w3.org/1999/02/22-rdf-syntax-ns#"
   xmlns:svg="http://www.w3.org/2000/svg"
   xmlns="http://www.w3.org/2000/svg"
   xmlns:xlink="http://www.w3.org/1999/xlink"
   xmlns:sodipodi="http://sodipodi.sourceforge.net/DTD/sodipodi-0.dtd"
   xmlns:inkscape="http://www.inkscape.org/namespaces/inkscape"
   aria-hidden="true"
   focusable="false"
   data-prefix="fab"
   data-icon="instagram-square"
   class="svg-inline--fa fa-instagram-square fa-w-14"
   role="img"
   viewBox="0 0 500 500"
   version="1.1"
   id="svg4"
   sodipodi:docname="instagramIcon(colorGradients_simple).svg"
   width="500"
   height="500"
   inkscape:version="0.92.3 (2405546, 2018-03-11)">
  <metadata
     id="metadata10">
    <rdf:RDF>
      <cc:Work
         rdf:about="">
        <dc:format>image/svg+xml</dc:format>
        <dc:type
           rdf:resource="http://purl.org/dc/dcmitype/StillImage" />
        <dc:title></dc:title>
      </cc:Work>
    </rdf:RDF>
  </metadata>
  <defs
     id="defs8">
    <linearGradient
       inkscape:collect="always"
       id="linearGradient918">
      <stop
         style="stop-color:#5f5aca;stop-opacity:1"
         offset="0"
         id="stop914" />
      <stop
         style="stop-color:#e95360;stop-opacity:1"
         offset="1"
         id="stop916" />
    </linearGradient>
    <linearGradient
       inkscape:collect="always"
       xlink:href="#linearGradient918"
       id="linearGradient922"
       x1="31.926523"
       y1="31.555372"
       x2="473.1145"
       y2="471.80533"
       gradientUnits="userSpaceOnUse" />
  </defs>
  <sodipodi:namedview
     pagecolor="#ffffff"
     bordercolor="#666666"
     borderopacity="1"
     objecttolerance="10"
     gridtolerance="10"
     guidetolerance="10"
     inkscape:pageopacity="0"
     inkscape:pageshadow="2"
     inkscape:window-width="1920"
     inkscape:window-height="1017"
     id="namedview6"
     showgrid="false"
     inkscape:zoom="0.59511647"
     inkscape:cx="-32.221957"
     inkscape:cy="192.68764"
     inkscape:window-x="-8"
     inkscape:window-y="-8"
     inkscape:window-maximized="1"
     inkscape:current-layer="svg4" />
  <path
     d="M 250,190.46875 A 59.53125,59.53125 0 1 0 309.55357,250 59.575893,59.575893 0 0 0 250,190.46875 Z M 389.18527,144.70982 A 60.267857,60.267857 0 0 0 355.24554,110.77009 C 331.80804,101.51786 276.00446,103.59375 250,103.59375 c -26.00446,0 -81.75223,-2.15402 -105.2567,7.17634 a 60.267857,60.267857 0 0 0 -33.93973,33.93973 c -9.24107,23.4375 -7.17634,79.29688 -7.17634,105.27902 0,25.98214 -2.06473,81.77455 7.22098,105.29018 a 60.267857,60.267857 0 0 0 33.93974,33.93973 c 23.4375,9.25223 79.24107,7.17634 105.25669,7.17634 26.01563,0 81.74107,2.15402 105.24554,-7.17634 a 60.267857,60.267857 0 0 0 33.93973,-33.93973 c 9.3192,-23.4375 7.17634,-79.29688 7.17634,-105.27902 0,-25.98214 2.14286,-81.76339 -7.17634,-105.27902 z M 250,341.51786 A 91.517857,91.517857 0 1 1 341.51786,250 91.40625,91.40625 0 0 1 250,341.51786 Z m 95.29018,-165.5134 a 21.361607,21.361607 0 1 1 21.35044,-21.3616 21.316964,21.316964 0 0 1 -21.3058,21.40625 z M 446.42857,0 H 53.571429 A 53.571429,53.571429 0 0 0 0,53.571429 V 446.42857 A 53.571429,53.571429 0 0 0 53.571429,500 H 446.42857 A 53.571429,53.571429 0 0 0 500,446.42857 V 53.571429 A 53.571429,53.571429 0 0 0 446.42857,0 Z m -19.10714,323.66071 c -1.43973,28.60491 -7.96875,53.9509 -28.85045,74.77679 -20.88169,20.82589 -46.20536,27.48884 -74.77678,28.85045 -29.47545,1.66294 -117.84599,1.66294 -147.32143,0 -28.60491,-1.43974 -53.86161,-7.97991 -74.77679,-28.85045 -20.915176,-20.87054 -27.488837,-46.22768 -28.850444,-74.77679 -1.662947,-29.4866 -1.662947,-117.8683 0,-147.32142 1.439732,-28.60492 7.890625,-53.9509 28.850444,-74.77679 20.95982,-20.825893 46.28348,-27.410714 74.77679,-28.772321 29.47544,-1.662947 117.84598,-1.662947 147.32143,0 28.60491,1.439732 53.93973,7.97991 74.77678,28.850451 20.83706,20.87053 27.48884,46.22767 28.85045,74.83258 1.66294,29.375 1.66294,117.67858 0,147.1875 z"
     id="path2"
     inkscape:connector-curvature="0"
     style="fill:url(#linearGradient922);stroke-width:1.11607146;fill-opacity:1" />
</svg>
