<?xml version="1.0" encoding="UTF-8" standalone="no"?>
<!-- Created with Inkscape (http://www.inkscape.org/) -->

<svg
   xmlns:dc="http://purl.org/dc/elements/1.1/"
   xmlns:cc="http://creativecommons.org/ns#"
   xmlns:rdf="http://www.w3.org/1999/02/22-rdf-syntax-ns#"
   xmlns:svg="http://www.w3.org/2000/svg"
   xmlns="http://www.w3.org/2000/svg"
   xmlns:sodipodi="http://sodipodi.sourceforge.net/DTD/sodipodi-0.dtd"
   xmlns:inkscape="http://www.inkscape.org/namespaces/inkscape"
   width="100mm"
   height="29mm"
   viewBox="0 0 100 29"
   version="1.1"
   id="svg840"
   inkscape:version="0.92.3 (2405546, 2018-03-11)"
   sodipodi:docname="InstagramLogo(With text) Av1.svg">
  <defs
     id="defs834" />
  <sodipodi:namedview
     id="base"
     pagecolor="#ffffff"
     bordercolor="#666666"
     borderopacity="1.0"
     inkscape:pageopacity="0.0"
     inkscape:pageshadow="2"
     inkscape:zoom="1.7111432"
     inkscape:cx="265.47684"
     inkscape:cy="-61.229896"
     inkscape:document-units="mm"
     inkscape:current-layer="layer1"
     showgrid="false"
     inkscape:window-width="1920"
     inkscape:window-height="1017"
     inkscape:window-x="-8"
     inkscape:window-y="-8"
     inkscape:window-maximized="1" />
  <metadata
     id="metadata837">
    <rdf:RDF>
      <cc:Work
         rdf:about="">
        <dc:format>image/svg+xml</dc:format>
        <dc:type
           rdf:resource="http://purl.org/dc/dcmitype/StillImage" />
        <dc:title></dc:title>
      </cc:Work>
    </rdf:RDF>
  </metadata>
  <g
     inkscape:label="Layer 1"
     inkscape:groupmode="layer"
     id="layer1"
     transform="translate(0,-268)">
    <g
       id="g1436"
       transform="matrix(0.12618491,0,0,0.12618491,39.490426,197.15626)">
      <path
         style="fill:#252525;stroke-width:0.26458332"
         d="m 120.15199,787.45157 c -3.13717,-0.56964 -4.8391,-1.06902 -7.38685,-2.16741 -7.35751,-3.17201 -12.34297,-8.80404 -14.102216,-15.93117 -0.49575,-2.00835 -0.431218,-8.08945 0.109538,-10.32513 1.700578,-7.03053 5.108708,-13.15669 11.109558,-19.96966 2.42232,-2.75016 3.64186,-3.94721 8.89543,-8.73152 2.39675,-2.18265 5.43285,-4.98062 6.74687,-6.21765 1.31403,-1.23703 5.21687,-4.84545 8.67299,-8.01865 3.45612,-3.17323 6.29407,-5.91158 6.30656,-6.08523 0.1243,-1.72749 -0.12367,-9.1381 -0.3179,-9.50103 -0.47202,-0.88196 -1.2016,-0.54316 -2.04375,0.94901 -2.87967,5.10254 -9.84059,10.46988 -16.57876,12.78334 -7.17889,2.46481 -15.25879,1.09781 -21.55547,-3.64688 -3.047263,-2.29619 -6.563046,-6.64406 -8.044871,-9.94884 -0.80272,-1.79022 -1.645524,-1.78943 -2.447238,0.003 -0.722868,1.61549 -3.220561,5.34064 -4.927467,7.34896 -4.393195,5.16898 -10.474563,7.71482 -16.421021,6.87438 -4.67696,-0.66104 -8.087968,-2.26756 -11.453204,-5.39428 -2.861045,-2.65824 -5.214805,-6.53071 -6.139868,-10.10142 -0.150786,-0.58208 -0.403754,-1.55202 -0.562133,-2.15543 -0.270378,-1.03018 -0.851192,-1.58713 -1.340062,-1.285 -0.118507,0.0732 -0.599467,0.81775 -1.068811,1.65449 -3.555286,6.33839 -9.36924,11.97666 -15.194994,14.73584 -6.605323,3.12843 -14.27988,3.6262 -20.797891,1.34893 -6.1683104,-2.15506 -10.97462542,-6.93534 -14.4652998,-14.38688 -1.3606198,-2.90449 -2.6820283,-6.34791 -2.9614812,-7.71716 -0.4973902,-2.43707 -1.6486982,-2.83178 -2.315263,-0.79375 -0.5731668,1.75251 -3.079115,6.91428 -4.464844,9.19679 -4.598723,7.5747 -10.60995,13.03784 -16.285871,14.80095 -1.858407,0.57727 -6.103752,0.557 -8.436504,-0.0403 -8.848646,-2.26557 -15.101996,-10.63159 -17.988754,-24.06617 -0.409284,-1.90474 -0.881856,-4.6538 -1.05016,-6.109 -0.6023,-5.20766 -0.619983,-5.28418 -1.24164,-5.37278 -0.470574,-0.0671 -0.716639,0.23065 -1.421368,1.71979 -3.039401,6.42245 -4.054221,8.30171 -6.54472,12.11965 -8.524745,13.06846 -19.000187,20.16297 -32.849055,22.2471 -4.79467,0.72154 -13.28444,0.41817 -19.11394,-0.683 -1.89464,-0.3579 -6.83328,-1.96953 -8.26312,-2.6965 -3.16095,-1.60713 -5.50026,-3.75013 -5.9775,-5.47584 -0.88,-3.18212 3.43959,-10.59376 7.32305,-12.56507 2.07577,-1.05367 4.00043,-0.40068 8.75505,2.97043 4.77875,3.3882 7.61404,4.60253 10.75616,4.60671 2.57372,0.003 4.42407,-0.85558 6.649811,-3.08705 2.927376,-2.93529 4.080769,-5.8639 4.080769,-10.36198 0,-6.4044 -2.884919,-11.75959 -10.52738,-19.54166 -3.04859,-3.10428 -10.34366,-9.75662 -11.21883,-10.23039 -0.32636,-0.17667 -0.62268,-0.081 -1.09619,0.35406 -0.35691,0.3279 -4.85051,7.6804 -9.98577,16.33889 -11.18807,18.86402 -12.71948,21.26366 -16.88384,26.45595 -9.44801,11.78015 -19.03375,16.49172 -26.48799,13.01933 -4.26049,-1.98467 -7.17834,-7.85522 -8.44243,-16.9857 -0.74245,-5.36269 -0.87669,-9.14908 -0.72227,-20.37291 0.16961,-12.32758 0.31465,-15.88662 1.49343,-36.64479 0.36836,-6.48681 0.36846,-6.5845 0.007,-7.25949 -0.20598,-0.38487 -0.55388,-0.54572 -1.1803,-0.54572 -0.74542,0 -1.12334,0.25394 -2.35046,1.57938 -5.60751,6.05678 -11.86948,16.36773 -16.39604,26.99769 -5.99931,14.0885 -12.46087,37.11294 -13.69901,48.81355 -0.34592,3.26906 -0.69617,4.17243 -1.84879,4.76848 -1.41253,0.73044 -5.06405,1.01878 -8.4551,0.66765 -7.28582,-0.75441 -8.78808,-3.01781 -9.56073,-14.40468 -0.25165,-3.70875 -0.25268,-11.53766 -0.005,-36.11562 0.17413,-17.25923 0.31917,-34.4165 0.32233,-38.12728 0.009,-10.20459 -0.005,-10.17368 4.47084,-9.97301 1.53335,0.0687 3.26415,0.2457 3.84623,0.39324 4.68876,1.18842 8.41774,2.74051 9.23598,3.84422 0.5259,0.70937 0.55361,1.06695 0.55361,7.14375 0,3.51835 -0.0959,13.90762 -0.21318,23.08727 -0.19548,15.30467 -0.17717,16.72015 0.22061,17.05028 0.52416,0.43501 1.26431,0.0702 1.41206,-0.69599 0.25398,-1.31705 4.76561,-14.49359 6.28645,-18.36004 2.36456,-6.01144 7.02654,-15.3559 9.57018,-19.18243 4.05536,-6.10071 7.55478,-9.47187 12.07806,-11.63534 2.93588,-1.40424 4.63672,-1.81238 7.55519,-1.81301 3.4323,-8e-4 6.5944,1.25496 11.82018,4.69392 4.1789,2.75002 5.29826,4.0484 6.05969,7.02879 0.46739,1.82949 0.47915,1.22573 -0.41999,21.56939 -0.91265,20.64952 -1.0002,28.8194 -0.387,36.11562 0.46028,5.4767 0.70778,6.83145 1.57134,8.60105 0.69209,1.41819 1.7633,2.24687 2.90454,2.24687 2.41411,0 6.80301,-4.53789 11.29311,-11.67646 2.6524,-4.21693 7.53792,-12.61773 12.05852,-20.735 5.60071,-10.05673 7.22252,-13.11905 7.22252,-13.63762 0,-0.29522 -0.61416,-1.33613 -1.36481,-2.31312 -2.76801,-3.60265 -3.92912,-6.97114 -3.92279,-11.3804 0.0119,-8.30153 4.62534,-15.81992 12.18679,-19.86049 3.38926,-1.8111 5.36075,-2.27352 9.63727,-2.26047 3.22266,0.01 3.90643,0.0905 5.26014,0.62043 3.20669,1.25536 4.661737,3.52938 4.661737,7.2856 0,5.78561 -3.321597,12.63323 -10.371427,21.38113 -0.92644,1.14959 -2.41016,-0.14395 14.274634,12.44501 3.820253,2.88245 7.963829,6.20436 9.207947,7.38202 5.4473,5.15632 8.668017,11.08846 9.497399,17.49297 0.326771,2.52333 0.254841,3.9231 -0.413216,8.04149 -0.25727,1.586 0.936728,1.07444 3.28911,-1.40922 6.799204,-7.17863 11.574727,-15.40234 13.890159,-23.91962 l 0.68331,-2.51354 0.09065,-25.05393 c 0.08728,-24.12249 0.07252,-25.06363 -0.396978,-25.3149 -0.270621,-0.14483 -5.427043,-0.39285 -11.586795,-0.55731 -9.99627,-0.26689 -11.164895,-0.34384 -11.760626,-0.77437 -0.625676,-0.45219 -0.665837,-0.63398 -0.742394,-3.36064 -0.04724,-1.68249 0.04843,-3.32322 0.229783,-3.94093 0.603186,-2.05452 1.905219,-5.17662 2.445049,-5.8629 l 0.546523,-0.69479 6.234999,0.1698 c 3.429249,0.0934 8.155694,0.24586 10.503207,0.33881 4.612285,0.18264 5.540459,0.0808 5.762178,-0.63227 0.07908,-0.25432 0.328128,-6.08762 0.553442,-12.96287 0.225314,-6.87526 0.524322,-13.10507 0.664461,-13.84402 0.614929,-3.24251 1.493139,-3.95031 4.90142,-3.95031 1.270352,0 2.740271,0.11192 3.266474,0.24871 0.526203,0.13679 1.73064,0.44798 2.676525,0.69153 2.61411,0.67309 7.79862,2.41774 8.988346,3.0247 0.581951,0.29688 1.25431,0.83926 1.494128,1.20528 0.464767,0.70933 0.469953,0.45953 -0.427117,20.56571 -0.134858,3.02241 -0.181081,5.66234 -0.102737,5.86652 0.238019,0.62022 0.869288,0.74265 4.996338,0.96905 2.182813,0.11975 5.992813,0.33633 8.466667,0.48131 2.473854,0.14497 6.58151,0.38365 9.128125,0.53039 5.2290927,0.30131 7.0185227,0.57401 7.6031725,1.15866 0.5668433,0.56684 0.519086,4.5065 -0.076888,6.34457 -0.7967663,2.45725 -1.9452431,4.3615 -2.8128913,4.66397 -0.4639468,0.16173 -4.1668962,0.29468 -9.0336682,0.32434 -4.536096,0.0276 -10.484591,0.10155 -13.218928,0.16422 -4.738502,0.10861 -4.98848,0.14066 -5.334,0.68385 -0.252809,0.39739 -0.411083,1.97147 -0.522949,5.20011 -0.08821,2.54661 -0.273076,7.60677 -0.410818,11.24479 -0.712232,18.81385 -1.333765,39.47917 -1.324981,44.05312 0.0074,3.88457 0.549381,11.21863 1.048571,14.19082 1.29233,7.69475 4.226639,13.26116 7.447809,14.12854 4.239683,1.14163 10.575105,-4.79729 15.393485,-14.43011 3.2653282,-6.52799 4.9464378,-12.8244 4.9445857,-18.51945 -0.00265,-4.12756 0.6606117,-11.91848 1.3263562,-15.61042 0.909029,-5.04114 0.8634413,-4.83363 1.9916775,-9.06198 0.2232555,-0.83674 0.710274,-2.35479 1.0822782,-3.37343 0.3720041,-1.01865 0.7820289,-2.20928 0.911172,-2.64584 0.4161367,-1.40656 3.6390263,-7.51846 5.0115259,-9.50386 3.6012702,-5.20941 7.3430077,-8.58768 12.0359485,-10.8668 3.952531,-1.91954 5.537677,-2.29481 10.31875,-2.44289 3.4299,-0.10622 4.274079,-0.0468 6.217709,0.43802 4.990518,1.24473 8.843883,3.84471 12.497964,8.43272 0.989594,1.24252 1.471268,1.64719 1.889575,1.5875 0.514164,-0.0734 0.572558,-0.28457 0.693711,-2.50981 0.156024,-2.86574 0.600286,-3.67161 2.408528,-4.36893 2.656152,-1.02431 8.366416,-0.30164 13.061791,1.65304 2.400644,0.99939 3.737769,2.0692 4.061011,3.24913 0.128958,0.47068 0.133667,5.24606 0.01085,10.8923 -0.465244,21.37338 -0.726414,31.06422 -0.911331,33.81539 -0.196321,2.92088 0.217911,14.23289 0.704294,19.23356 0.966391,9.93535 3.132085,14.91607 7.068952,16.25751 5.544926,1.88934 11.264821,-3.19929 13.961957,-12.42105 0.765122,-2.61599 0.902679,-5.46708 0.414893,-8.59896 -0.460216,-2.95481 -0.625157,-12.52305 -0.305594,-17.72708 0.712709,-11.60652 2.320634,-19.57666 5.690474,-28.2066 3.788595,-9.70236 9.438237,-16.62481 16.178477,-19.82333 2.39448,-1.13628 4.22656,-1.64483 7.57237,-2.10197 4.08834,-0.55859 8.85,0.22277 12.50111,2.05135 3.0244,1.5147 6.41263,4.50482 8.36899,7.38567 0.82576,1.21601 1.1938,1.5496 1.63957,1.48612 0.53229,-0.0758 0.58586,-0.27057 0.72474,-2.63401 0.17497,-2.97767 0.54208,-3.72938 2.18578,-4.47567 3.601,-1.63498 14.83423,0.89451 16.90844,3.80742 0.5507,0.7734 0.55163,0.81818 0.36827,17.81003 -0.1011,9.36908 -0.23548,17.8964 -0.29864,18.94961 -0.0632,1.05321 -0.18261,8.53819 -0.26548,16.63329 -0.13742,13.42401 -0.1129,14.73286 0.27895,14.88323 0.23633,0.0907 0.59351,0.0732 0.79378,-0.0389 0.20029,-0.11207 1.42372,-1.8089 2.71878,-3.77073 9.81345,-14.86601 15.97072,-28.06524 19.93079,-42.72529 0.15725,-0.58208 0.39106,-1.40352 0.51962,-1.82542 0.12853,-0.4219 0.2322,-1.1958 0.23037,-1.71979 -0.003,-0.82139 -0.20299,-1.1278 -1.45185,-2.22306 -1.74035,-1.5263 -2.74936,-2.94211 -3.72403,-5.22537 -0.67133,-1.57266 -0.72798,-1.97585 -0.723,-5.14594 0.004,-2.84436 0.10924,-3.76009 0.6055,-5.29167 1.89658,-5.85329 5.36802,-8.98551 11.19729,-10.10317 2.01184,-0.38573 2.59893,-0.40108 4.31451,-0.11281 3.62035,0.60832 5.26476,1.7356 6.49941,4.45548 0.69475,1.53052 0.74801,1.88624 0.74801,4.99639 0,1.8417 -0.13944,3.81398 -0.30988,4.38284 -0.26419,0.88176 -0.24567,1.09848 0.12549,1.46965 0.45744,0.45743 0.47249,0.45611 5.21147,-0.45405 0.65484,-0.12577 1.96453,-0.3647 2.91042,-0.53095 0.94588,-0.16626 2.19604,-0.40372 2.77812,-0.52769 1.08201,-0.23046 3.01792,-0.60071 5.49011,-1.05002 0.76398,-0.13885 2.16296,-0.40358 3.10885,-0.58829 2.26833,-0.44295 7.77999,-0.38251 8.99583,0.0986 4.15917,1.64594 6.09272,4.34622 6.11463,8.53923 0.0122,2.32643 -0.1868,3.45777 -2.14149,12.17892 -3.72475,16.61864 -4.85034,26.03057 -4.24523,35.49775 0.34689,5.42722 1.0823,9.73119 2.26835,13.27567 1.10622,3.30589 2.08462,5.0995 3.81386,6.99156 1.72522,1.88767 3.33277,2.66549 5.77903,2.7962 1.74141,0.0931 2.09738,0.0217 3.61056,-0.72316 3.60047,-1.77253 6.64887,-6.22538 8.20512,-11.98538 0.47723,-1.76638 0.47654,-1.78555 -0.2051,-5.68854 -1.17512,-6.72848 -1.30805,-8.65776 -1.16324,-16.88077 0.0743,-4.2201 0.26667,-8.74448 0.4274,-10.05417 2.93199,-23.88896 13.15088,-40.08811 27.36036,-43.372 2.26216,-0.52281 7.62227,-0.55032 9.97169,-0.0512 5.55578,1.1803 9.3077,3.75306 13.91552,9.54212 0.5718,0.71837 0.95089,0.97794 1.25677,0.86055 0.35894,-0.13773 0.43802,-0.56443 0.43802,-2.36332 0,-3.64512 1.12038,-4.88236 4.67987,-5.16809 1.68135,-0.13496 5.49847,0.27041 7.09409,0.75339 4.52001,1.36814 6.5019,2.39425 7.46493,3.86489 0.43323,0.66157 0.46564,1.41649 0.38923,9.06724 -0.0459,4.59007 -0.19302,10.31011 -0.327,12.7112 -0.13401,2.4011 -0.24609,6.80641 -0.24908,9.78959 -0.003,2.98317 -0.13449,7.74567 -0.29218,10.58333 -0.2994,5.38696 0.006,17.27243 0.57867,22.48958 1.26415,11.5256 3.74034,16.12392 8.93636,16.59507 1.37752,0.12491 1.75368,0.0425 3.31499,-0.7261 4.58943,-2.25938 8.97331,-9.87864 11.87066,-20.63147 0.48334,-1.79375 0.56682,-3.40768 0.86916,-16.80104 0.18393,-8.14916 0.34578,-22.10364 0.35967,-31.00995 0.0185,-11.94417 0.10816,-16.37531 0.34131,-16.88702 0.37238,-0.81729 1.47482,-1.44979 2.51503,-1.44294 0.92141,0.006 6.03744,0.91541 8.67825,1.54251 0.58208,0.13823 1.69325,0.38118 2.46928,0.5399 2.18403,0.44668 3.66958,1.21013 4.26955,2.19419 0.52324,0.85821 0.53525,1.27719 0.53623,18.6887 v 17.8108 l 0.7161,-0.0837 c 0.69559,-0.0813 0.81944,-0.39044 4.32652,-10.79934 4.11803,-12.22219 5.38628,-15.65241 7.59354,-20.53831 3.62175,-8.01688 4.89093,-9.35972 8.84611,-9.35956 4.27124,1.6e-4 11.25111,2.64148 13.96454,5.28444 0.86038,0.83804 1.64754,1.95662 2.13779,3.03785 0.91831,2.02529 0.95078,2.4244 1.34532,16.54849 0.29242,10.46819 0.55015,16.17758 1.00926,22.3573 0.66595,8.96435 0.6727,8.99602 1.8828,8.81979 0.68691,-0.10003 0.91821,-0.70045 1.30815,-3.39584 0.77348,-5.34659 2.31394,-12.22984 4.24857,-18.98385 0.13547,-0.47294 0.35296,-1.24685 0.48334,-1.71979 0.59592,-2.16196 5.07942,-15.56213 6.30741,-18.85156 1.7064,-4.57095 3.68593,-8.95484 4.57446,-10.13067 1.86309,-2.46557 4.15107,-3.29686 7.46873,-2.71361 5.08154,0.89332 12.36369,4.03778 14.76285,6.37464 2.20192,2.14474 2.50056,3.09117 2.50056,7.92484 0,2.25558 -0.1786,8.92308 -0.39688,14.81667 -0.67059,18.10572 -0.48006,32.22775 0.53718,39.81979 1.24,9.25454 3.98532,15.07853 8.05127,17.08021 1.50146,0.73916 1.91165,0.8314 3.08118,0.69289 3.44504,-0.40802 6.30272,-3.80709 8.1578,-9.70331 0.34337,-1.0914 0.80047,-2.52015 1.01578,-3.175 0.21532,-0.65484 0.48456,-1.60734 0.59836,-2.11666 0.56324,-2.52127 1.53704,-6.20506 1.90825,-7.21887 0.64741,-1.768 3.04393,-2.39478 4.31118,-1.12753 0.35718,0.35718 0.64942,0.82493 0.64942,1.03943 0,0.2145 0.20836,0.59843 0.46302,0.85318 0.36536,0.3655 0.46027,0.9033 0.44995,2.55017 -0.008,1.32913 -0.12877,2.1585 -0.33171,2.28392 -0.17526,0.10832 -0.4363,1.02307 -0.5801,2.0328 -0.30387,2.13382 -0.6776,4.09665 -1.0296,5.40773 -0.90403,3.36709 -1.16776,4.27231 -1.65751,5.68854 -2.34333,6.77672 -5.41565,10.64713 -10.37143,13.0656 -3.40225,1.66032 -4.86261,1.99462 -8.63846,1.97742 -3.13242,-0.0143 -4.78943,-0.34753 -7.36787,-1.48191 -4.48078,-1.97127 -9.18729,-6.95655 -11.79473,-12.49333 -1.18338,-2.51285 -2.67542,-6.98683 -3.13555,-9.40215 -0.0693,-0.36381 -0.30779,-1.55443 -0.52996,-2.64584 -1.76308,-8.66138 -2.42494,-24.33739 -1.7453,-41.33668 0.32824,-8.21021 0.30488,-8.40498 -1.00838,-8.40498 -0.5543,0 -0.79841,0.32908 -1.71733,2.3151 -3.93891,8.513 -8.02743,20.17706 -9.99302,28.50885 -0.17167,0.72761 -0.41614,1.73964 -0.54327,2.24896 -0.22942,0.91898 -0.60706,2.57671 -0.93427,4.10104 -0.0937,0.43657 -0.27903,1.41883 -0.41183,2.18282 -0.13277,0.76398 -0.36835,2.07367 -0.52353,2.91041 -0.89159,4.80791 -1.59149,11.81036 -2.00194,20.02907 -0.17349,3.47408 -0.22294,3.72681 -0.84132,4.2999 -1.19264,1.1053 -3.96526,1.72178 -7.29539,1.62208 -2.74629,-0.0822 -3.07387,-0.15163 -4.9554,-1.05018 -4.49811,-2.1481 -6.95685,-6.18464 -8.43905,-13.85451 -0.16872,-0.87313 -0.36237,-1.82563 -0.43032,-2.11667 -0.19679,-0.84292 -0.63005,-3.78648 -0.89566,-6.08542 -0.8943,-7.73995 -1.15367,-10.49494 -1.58168,-16.80104 -0.45612,-6.72001 -0.80198,-13.18498 -1.04299,-19.49549 -0.26874,-7.03627 -0.41304,-7.6243 -1.87103,-7.6243 -0.8223,0 -1.02949,0.15803 -1.90804,1.45521 -1.67198,2.46868 -5.06193,9.45555 -6.03353,12.43542 -0.11864,0.3638 -0.71438,2.03067 -1.32387,3.70416 -0.6095,1.67349 -1.20378,3.3999 -1.32064,3.83646 -0.11687,0.43656 -0.64032,2.28203 -1.16327,4.10104 -0.52292,1.81901 -1.07709,3.78354 -1.23145,4.36563 -0.15436,0.58208 -0.38365,1.41552 -0.50951,1.85208 -0.85683,2.97173 -2.14685,11.47869 -2.62803,17.33021 -0.22569,2.74498 -0.5398,10.09039 -0.89042,20.82252 -0.10494,3.2122 -1.43286,4.28181 -6.01234,4.84278 -3.68515,0.45143 -6.92883,0.0519 -11.90033,-1.46601 -3.49567,-1.06727 -3.93956,-1.59641 -3.98669,-4.75242 -0.0196,-1.30968 -0.17234,-3.75046 -0.33953,-5.42395 -0.27671,-2.76974 -0.35362,-3.0498 -0.8571,-3.12174 -0.46167,-0.0659 -0.75443,0.33737 -1.77072,2.43953 -3.61873,7.48507 -7.81995,11.10806 -14.19447,12.24087 -8.63939,1.53527 -17.55243,-2.99196 -21.67557,-11.00971 -1.05,-2.04179 -1.9825,-4.6718 -2.27251,-6.40934 -0.17951,-1.07556 -0.73249,-1.68452 -1.32365,-1.4577 -0.21424,0.0822 -0.70028,0.76277 -1.08011,1.51236 -1.6047,3.16672 -5.33831,7.90215 -8.00714,10.15561 -4.73996,4.0023 -9.49555,6.27457 -15.00055,7.16746 -5.90846,0.95832 -11.61426,0.048 -16.32667,-2.60496 -3.54761,-1.99718 -7.3574,-6.05562 -9.31966,-9.92796 -1.16554,-2.30008 -1.73728,-2.1476 -3.25509,0.86804 -2.29804,4.56589 -6.81604,8.84341 -11.23862,10.64049 -4.68054,1.90185 -10.56582,1.85841 -15.21585,-0.11234 -6.5383,-2.77101 -12.73902,-10.00035 -15.37142,-17.92124 -1.70037,-5.11648 -2.1378,-7.55864 -2.72502,-15.21354 -0.46493,-6.0604 0.0603,-15.37545 1.32776,-23.54792 0.47757,-3.07949 1.25203,-7.4245 1.57983,-8.86354 0.1326,-0.58208 0.38417,-1.71317 0.55903,-2.51354 0.17487,-0.80036 0.42593,-1.93146 0.5579,-2.51354 0.58455,-2.57816 0.58246,-2.65326 -0.0961,-3.44211 l -0.65074,-0.75652 -7.49969,0.0681 c -4.12483,0.0375 -7.69824,0.17439 -7.94092,0.30426 -0.41301,0.22104 -0.84254,1.16478 -2.07253,4.55384 -5.30378,14.61368 -13.35932,30.30053 -22.45241,43.72239 -3.85659,5.69256 -7.97811,11.0576 -12.76411,16.61525 l -1.32101,1.534 -0.003,4.02225 c -0.003,2.21223 0.1369,8.36803 0.30763,13.67954 0.45059,14.01784 -0.21151,23.71082 -2.29288,33.56883 -1.85454,8.78353 -4.28821,14.34023 -8.45246,19.29913 -3.75504,4.47161 -7.97909,7.59335 -12.97514,9.58916 -4.81753,1.92447 -10.00945,2.51989 -14.64064,1.67896 z m 7.21468,-8.60713 c 5.53326,-1.93987 9.51188,-7.75928 11.73499,-17.16437 1.14892,-4.86068 1.58427,-7.73446 2.16667,-14.303 0.32557,-3.67162 0.35719,-22.1933 0.0388,-22.69567 -0.12338,-0.19463 -0.45447,-0.31369 -0.73581,-0.26458 -0.65111,0.11366 -10.80928,10.81947 -15.14766,15.96429 -5.99635,7.11097 -10.58338,14.89581 -12.23817,20.7698 -2.05168,7.28297 -0.67101,13.14918 3.82331,16.24451 2.16059,1.48807 3.67067,1.95758 6.38916,1.98655 1.78067,0.019 2.75953,-0.11361 3.96875,-0.53753 z m -2.79998,-76.454 c 4.64077,-2.27674 8.71924,-8.33411 11.2639,-16.72921 3.36116,-11.0888 4.4396,-28.3345 2.50142,-40.00094 -1.56065,-9.39383 -5.21115,-14.62697 -11.14997,-15.98386 -3.34745,-0.76483 -7.0608,0.41159 -10.12539,3.20779 -4.36634,3.98398 -8.09823,12.70195 -9.88613,23.09482 -0.48233,2.8036 -0.5707,3.39843 -0.84524,5.68854 -0.43285,3.61063 -0.6011,15.68016 -0.25453,18.25624 1.01241,7.5248 1.94091,11.01814 4.04361,15.21355 1.70621,3.40431 3.78804,5.88377 6.09499,7.25918 1.53487,0.91509 2.27502,1.07233 4.52088,0.96047 1.67706,-0.0836 2.41607,-0.26975 3.83646,-0.96658 z m -94.055114,-0.20399 c 2.193792,-1.08067 5.199062,-3.98002 7.025613,-6.77802 2.559659,-3.921 4.563877,-8.73221 5.789163,-13.89711 1.404329,-5.91962 1.817634,-9.1307 2.138018,-16.61083 0.433626,-10.12385 -0.368644,-18.93564 -2.209429,-24.26729 -2.994343,-8.67286 -9.316826,-12.89399 -16.017875,-10.69415 -5.794058,1.90209 -10.110153,8.06997 -12.702514,18.15243 -1.293098,5.02927 -1.624277,7.39562 -2.251657,16.08964 -0.917231,12.71026 0.605155,24.3337 4.113133,31.40408 1.607291,3.23953 3.842121,5.71095 6.213264,6.87107 1.439439,0.70427 1.797896,0.76933 3.843125,0.69765 1.933073,-0.0678 2.513542,-0.20611 4.059159,-0.96747 z m 257.686864,0.26154 c 4.04106,-1.98538 7.83045,-6.53219 10.47184,-12.56494 1.13093,-2.58306 3.04802,-8.82526 3.45839,-11.26091 1.39668,-8.28981 1.60234,-10.6798 1.59562,-18.54206 -0.005,-5.75101 -0.37372,-11.33938 -0.91752,-13.90249 -1.28458,-6.05472 -2.95849,-9.93607 -5.47055,-12.68467 -1.75429,-1.91947 -3.15034,-2.86578 -5.23957,-3.55164 -8.22941,-2.70158 -15.74496,4.25839 -19.32382,17.89533 -1.64885,6.28284 -2.39162,13.33426 -2.39059,22.6945 0,7.28008 0.14679,9.48278 0.9507,14.34523 1.50882,9.12583 4.77986,15.18537 9.47389,17.55014 1.49823,0.75477 1.79657,0.81116 3.87225,0.73173 1.70231,-0.0652 2.55776,-0.23778 3.51936,-0.71022 z M -277.779,733.41911 c -0.19294,-0.13079 -0.41289,-0.70141 -0.4888,-1.2681 -0.1324,-0.98851 0.14233,-2.1287 1.81018,-7.5126 2.4756,-7.99137 3.27743,-13.23941 3.51696,-23.01875 0.0873,-3.56526 0.21398,-19.28151 0.28146,-34.925 0.0675,-15.64349 0.24201,-41.58011 0.38785,-57.63693 0.14585,-16.05682 0.19009,-29.51088 0.0983,-29.89792 -0.4495,-1.89558 -1.80784,-2.12145 -3.71005,-0.61691 -4.9897,3.94655 -10.73188,12.60882 -14.23684,21.47676 -3.37818,8.5472 -4.90307,16.46265 -4.90307,25.45106 0,9.8186 1.69505,16.06435 6.15254,22.67023 1.48681,2.20343 1.90723,3.39918 1.65948,4.71985 -0.41568,2.21575 -4.13215,1.90405 -9.13494,-0.76616 -6.4563,-3.44602 -11.31503,-8.72334 -14.04885,-15.2592 -0.80262,-1.91886 -0.96403,-2.41678 -1.59932,-4.93349 -0.83357,-3.30223 -1.21598,-8.97688 -0.78231,-11.60879 0.17083,-1.03673 0.43843,-2.65886 0.59467,-3.60475 1.45736,-8.82293 6.7932,-20.52455 13.30193,-29.1714 3.2302,-4.29134 5.951,-7.2706 9.66093,-10.57869 7.55947,-6.74068 13.25984,-10.36072 18.4843,-11.73851 1.76955,-0.46667 3.57822,-0.46191 6.28224,0.0165 2.82214,0.49934 4.24777,0.99972 7.30838,2.56511 3.08564,1.5782 4.76488,2.98589 5.21293,4.36997 0.25842,0.79826 0.30123,13.52217 0.20193,60.01512 -0.0739,34.59863 -0.23204,60.26055 -0.38237,62.04478 -0.3494,4.14703 -0.55368,5.98041 -0.84018,7.54063 -0.13362,0.7276 -0.38066,2.09682 -0.549,3.04271 -0.16833,0.94588 -0.40384,2.07698 -0.52336,2.51354 -0.11952,0.43656 -0.36315,1.32953 -0.54139,1.98437 -0.60391,2.21867 -2.43572,6.73532 -3.75574,9.26042 -3.48276,6.66231 -9.66563,12.68114 -14.79448,14.40199 -1.47763,0.49577 -4.21481,0.76819 -4.66339,0.46413 z"
         id="path1411"
         inkscape:connector-curvature="0" />
    </g>
  </g>
</svg>
