<?xml version="1.0" encoding="UTF-8" standalone="no"?>
<svg
   xmlns:dc="http://purl.org/dc/elements/1.1/"
   xmlns:cc="http://creativecommons.org/ns#"
   xmlns:rdf="http://www.w3.org/1999/02/22-rdf-syntax-ns#"
   xmlns:svg="http://www.w3.org/2000/svg"
   xmlns="http://www.w3.org/2000/svg"
   xmlns:sodipodi="http://sodipodi.sourceforge.net/DTD/sodipodi-0.dtd"
   xmlns:inkscape="http://www.inkscape.org/namespaces/inkscape"
   aria-hidden="true"
   focusable="false"
   data-prefix="fab"
   data-icon="linkedin"
   class="svg-inline--fa fa-linkedin fa-w-14"
   role="img"
   viewBox="0 0 500 500"
   version="1.1"
   id="svg4"
   sodipodi:docname="linkedin-brands.svg"
   width="500"
   height="500"
   inkscape:version="0.92.3 (2405546, 2018-03-11)">
  <metadata
     id="metadata10">
    <rdf:RDF>
      <cc:Work
         rdf:about="">
        <dc:format>image/svg+xml</dc:format>
        <dc:type
           rdf:resource="http://purl.org/dc/dcmitype/StillImage" />
        <dc:title></dc:title>
      </cc:Work>
    </rdf:RDF>
  </metadata>
  <defs
     id="defs8" />
  <sodipodi:namedview
     pagecolor="#ffffff"
     bordercolor="#666666"
     borderopacity="1"
     objecttolerance="10"
     gridtolerance="10"
     guidetolerance="10"
     inkscape:pageopacity="0"
     inkscape:pageshadow="2"
     inkscape:window-width="1920"
     inkscape:window-height="1017"
     id="namedview6"
     showgrid="false"
     inkscape:zoom="0.59731188"
     inkscape:cx="718.79638"
     inkscape:cy="-55.675304"
     inkscape:window-x="-8"
     inkscape:window-y="-8"
     inkscape:window-maximized="1"
     inkscape:current-layer="svg4" />
  <path
     d="M 464.28571,0 H 35.602679 C 15.959821,0 0,16.183036 0,36.049107 V 463.95089 C 0,483.81696 15.959821,500 35.602679,500 H 464.28571 C 483.92857,500 500,483.81696 500,463.95089 V 36.049107 C 500,16.183036 483.92857,0 464.28571,0 Z M 151.11607,428.57143 H 77.008929 V 189.95536 H 151.22768 V 428.57143 Z M 114.0625,157.36607 c -23.772321,0 -42.96875,-19.30803 -42.96875,-42.96875 0,-23.660713 19.196429,-42.968749 42.96875,-42.968749 23.66071,0 42.96875,19.308036 42.96875,42.968749 0,23.77232 -19.19643,42.96875 -42.96875,42.96875 z M 428.90625,428.57143 H 354.79911 V 312.5 c 0,-27.67857 -0.55804,-63.28125 -38.50447,-63.28125 -38.61607,0 -44.53125,30.13393 -44.53125,61.27232 V 428.57143 H 197.65625 V 189.95536 H 268.75 v 32.58928 h 1.00446 c 9.93304,-18.75 34.15179,-38.50446 70.2009,-38.50446 75,0 88.95089,49.44196 88.95089,113.72768 z"
     id="path2"
     inkscape:connector-curvature="0"
     style="fill:#808080;fill-opacity:1;stroke-width:1.11607146" />
</svg>
