<svg xmlns="http://www.w3.org/2000/svg" xmlns:xlink="http://www.w3.org/1999/xlink" xml:space="preserve" version="1.1" style="shape-rendering:geometricPrecision;text-rendering:geometricPrecision;image-rendering:optimizeQuality;" viewBox="0 0 491 491" x="0px" y="0px" fill-rule="evenodd" clip-rule="evenodd"><defs><style type="text/css">
   
    .fil0 {fill:white;fill-rule:nonzero}
   
  </style></defs><g><path class="fil0" d="M246 0c135,0 245,110 245,246 0,135 -110,245 -245,245 -136,0 -246,-110 -246,-245 0,-136 110,-246 246,-246zm0 156c49,0 89,41 89,90 0,30 -15,57 -38,73 43,16 76,51 90,95 48,-40 79,-101 79,-168 0,-122 -99,-221 -220,-221 -122,0 -221,99 -221,221 0,67 31,128 79,168 14,-44 48,-79 90,-95 -23,-16 -38,-43 -38,-73 0,-49 40,-90 90,-90zm119 274c-13,-54 -62,-94 -119,-94 -58,0 -107,40 -120,94 34,23 75,36 120,36 44,0 85,-13 119,-36zm-119 -248c-36,0 -65,28 -65,64 0,36 29,64 65,64 35,0 64,-28 64,-64 0,-36 -29,-64 -64,-64z"/></g></svg>