<?xml version="1.0" encoding="UTF-8" standalone="no"?>
<svg
   xmlns:dc="http://purl.org/dc/elements/1.1/"
   xmlns:cc="http://creativecommons.org/ns#"
   xmlns:rdf="http://www.w3.org/1999/02/22-rdf-syntax-ns#"
   xmlns:svg="http://www.w3.org/2000/svg"
   xmlns="http://www.w3.org/2000/svg"
   xmlns:sodipodi="http://sodipodi.sourceforge.net/DTD/sodipodi-0.dtd"
   xmlns:inkscape="http://www.inkscape.org/namespaces/inkscape"
   version="1.1"
   x="0px"
   y="0px"
   viewBox="0 0 100 100"
   xml:space="preserve"
   id="svg20"
   sodipodi:docname="addUser.svg"
   width="100"
   height="100"
   inkscape:version="0.92.3 (2405546, 2018-03-11)"><metadata
     id="metadata26"><rdf:RDF><cc:Work
         rdf:about=""><dc:format>image/svg+xml</dc:format><dc:type
           rdf:resource="http://purl.org/dc/dcmitype/StillImage" /><dc:title></dc:title></cc:Work></rdf:RDF></metadata><defs
     id="defs24" /><sodipodi:namedview
     pagecolor="#ffffff"
     bordercolor="#666666"
     borderopacity="1"
     objecttolerance="10"
     gridtolerance="10"
     guidetolerance="10"
     inkscape:pageopacity="0"
     inkscape:pageshadow="2"
     inkscape:window-width="1920"
     inkscape:window-height="1017"
     id="namedview22"
     showgrid="false"
     inkscape:zoom="2.2034776"
     inkscape:cx="-170.93649"
     inkscape:cy="-11.982139"
     inkscape:window-x="1912"
     inkscape:window-y="-8"
     inkscape:window-maximized="1"
     inkscape:current-layer="svg20" /><g
     id="g840"
     transform="matrix(3.4482759,0,0,3.4482759,-5.1724144,-41.379311)"><g
       transform="translate(0,10)"
       style="fill:#ffffff"
       id="g14"><path
         inkscape:connector-curvature="0"
         style="fill:#ffffff"
         id="path2"
         d="m 16,14 c 3.308594,0 6,-2.691406 6,-6 0,-3.3085937 -2.691406,-6 -6,-6 -3.308594,0 -6,2.6914063 -6,6 0,3.308594 2.691406,6 6,6 z M 16,4 c 2.206055,0 4,1.7944336 4,4 0,2.205566 -1.793945,4 -4,4 -2.205566,0 -4,-1.794434 -4,-4 0,-2.2055664 1.794434,-4 4,-4 z" /><path
         inkscape:connector-curvature="0"
         style="fill:#ffffff"
         id="path4"
         d="m 6,21 c 0.5522461,0 1,-0.447754 1,-1 0,-1.654297 1.3457031,-3 3,-3 0.552246,0 1,-0.447754 1,-1 0,-0.552246 -0.447754,-1 -1,-1 -2.7568359,0 -5,2.243164 -5,5 0,0.552246 0.4477539,1 1,1 z" /><path
         inkscape:connector-curvature="0"
         style="fill:#ffffff"
         id="path6"
         d="m 22,15 c -0.552734,0 -1,0.447754 -1,1 0,0.552246 0.447266,1 1,1 1.654297,0 3,1.345703 3,3 0,0.552246 0.447266,1 1,1 0.552734,0 1,-0.447754 1,-1 0,-2.756836 -2.243164,-5 -5,-5 z" /><path
         inkscape:connector-curvature="0"
         style="fill:#ffffff"
         id="path8"
         d="M 10.987305,29 H 7 V 26 C 7,25.447754 6.5522461,25 6,25 5.4477539,25 5,25.447754 5,26 v 3 c 0,1.103027 0.8969727,2 2,2 h 3.987305 c 0.552246,0 1,-0.447754 1,-1 0,-0.552246 -0.447754,-1 -1,-1 z" /><path
         inkscape:connector-curvature="0"
         style="fill:#ffffff"
         id="path10"
         d="m 25.987305,25 c -0.552735,0 -1,0.447754 -1,1 v 3 H 21 c -0.552734,0 -1,0.447754 -1,1 0,0.552246 0.447266,1 1,1 h 3.987305 c 1.102539,0 2,-0.896973 2,-2 v -3 c 0,-0.552246 -0.447266,-1 -1,-1 z" /><path
         inkscape:connector-curvature="0"
         style="fill:#ffffff"
         id="path12"
         d="m 19,21 h -2 v -2 c 0,-0.552246 -0.447754,-1 -1,-1 -0.552246,0 -1,0.447754 -1,1 v 2 h -2 c -0.552246,0 -1,0.447754 -1,1 0,0.552246 0.447754,1 1,1 h 2 v 2 c 0,0.552246 0.447754,1 1,1 0.552246,0 1,-0.447754 1,-1 v -2 h 2 c 0.552734,0 1,-0.447754 1,-1 0,-0.552246 -0.447266,-1 -1,-1 z" /></g></g></svg>