<?xml version="1.0" encoding="UTF-8" standalone="no"?>
<svg
   xmlns:dc="http://purl.org/dc/elements/1.1/"
   xmlns:cc="http://creativecommons.org/ns#"
   xmlns:rdf="http://www.w3.org/1999/02/22-rdf-syntax-ns#"
   xmlns:svg="http://www.w3.org/2000/svg"
   xmlns="http://www.w3.org/2000/svg"
   xmlns:sodipodi="http://sodipodi.sourceforge.net/DTD/sodipodi-0.dtd"
   xmlns:inkscape="http://www.inkscape.org/namespaces/inkscape"
   version="1.1"
   x="0px"
   y="0px"
   viewBox="0 0 100 100"
   enable-background="new 0 0 100 100"
   xml:space="preserve"
   id="svg40"
   sodipodi:docname="backorderForm.svg"
   width="100"
   height="100"
   inkscape:version="0.92.3 (2405546, 2018-03-11)"><metadata
     id="metadata46"><rdf:RDF><cc:Work
         rdf:about=""><dc:format>image/svg+xml</dc:format><dc:type
           rdf:resource="http://purl.org/dc/dcmitype/StillImage" /><dc:title></dc:title></cc:Work></rdf:RDF></metadata><defs
     id="defs44" /><sodipodi:namedview
     pagecolor="#ffffff"
     bordercolor="#666666"
     borderopacity="1"
     objecttolerance="10"
     gridtolerance="10"
     guidetolerance="10"
     inkscape:pageopacity="0"
     inkscape:pageshadow="2"
     inkscape:window-width="1920"
     inkscape:window-height="1017"
     id="namedview42"
     showgrid="false"
     inkscape:zoom="6.526875"
     inkscape:cx="50"
     inkscape:cy="18.423913"
     inkscape:window-x="-8"
     inkscape:window-y="-8"
     inkscape:window-maximized="1"
     inkscape:current-layer="svg40" /><g
     id="g870"
     style="fill:#ffffff"
     transform="matrix(1.1376823,0,0,1.1376823,-8.9729199,-7.3380502)"><rect
       id="rect2"
       height="2"
       width="12.854"
       y="13.584"
       x="25.879"
       style="fill:#ffffff" /><rect
       id="rect4"
       height="2"
       width="44.999001"
       y="24.618999"
       x="25.879"
       style="fill:#ffffff" /><rect
       id="rect6"
       height="2"
       width="44.999001"
       y="34.623001"
       x="25.879"
       style="fill:#ffffff" /><rect
       id="rect8"
       height="2"
       width="38.272999"
       y="44.792"
       x="25.879"
       style="fill:#ffffff" /><rect
       id="rect10"
       height="2"
       width="29.434"
       y="54.631001"
       x="25.879"
       style="fill:#ffffff" /><rect
       id="rect12"
       height="2"
       width="22.830999"
       y="65.292"
       x="25.879"
       style="fill:#ffffff" /><rect
       id="rect14"
       height="2"
       width="31.292999"
       y="75.877998"
       x="25.879"
       style="fill:#ffffff" /><polygon
       id="polygon16"
       points="55.313,62.128 61.675,68.491 67.133,63.033 60.771,56.669 "
       style="fill:#ffffff" /><rect
       id="rect18"
       height="8.9980001"
       width="24.013"
       transform="matrix(-0.7071,0.7071,-0.7071,-0.7071,161.3967,33.0379)"
       y="45.445999"
       x="61.849998"
       style="fill:#ffffff" /><g
       id="g24"
       style="fill:#ffffff"><rect
         id="rect20"
         height="8.9969997"
         width="6.3309999"
         transform="matrix(0.7071,-0.7071,0.7071,0.7071,0.9596,72.9207)"
         y="30.804001"
         x="85.337997"
         style="fill:#ffffff" /><rect
         id="rect22"
         height="8.9980001"
         width="1.539"
         transform="matrix(-0.7069,0.7073,-0.7073,-0.7069,171.8334,7.788)"
         y="34.993999"
         x="83.533997"
         style="fill:#ffffff" /></g><polyline
       id="polyline26"
       points="60.193,70.098 51.966,71.963 53.88,63.686 "
       style="fill:#ffffff" /><rect
       id="rect28"
       height="7.2620001"
       width="11.931"
       y="14.584"
       x="58.946999"
       style="fill:#ffffff" /><circle
       id="circle30"
       r="4.1009998"
       cy="76.877998"
       cx="66.777"
       style="fill:#ffffff" /><rect
       id="rect32"
       height="2"
       width="4.4200001"
       y="13.584"
       x="40.596001"
       style="fill:#ffffff" /><path
       id="path34"
       d="M 79.537,35.623 V 6.45 H 16.946 v 6.563 H 9.75 V 94.348 H 64.84 V 88.677 H 79.537 V 57.438 h -4 V 84.677 H 20.946 V 10.45 H 75.537 V 35.623 Z M 60.84,88.678 v 1.67 H 13.75 V 17.013 h 3.196 v 71.665 z"
       style="fill:#ffffff"
       inkscape:connector-curvature="0" /></g></svg>