<svg xmlns="http://www.w3.org/2000/svg" viewBox="0 0 64 64" x="0px" y="0px" fill="white"><g data-name="21-garnish"><path d="M54,64H38a7.008,7.008,0,0,1-7-7V36a9.031,9.031,0,0,1,4-7.475V25a3,3,0,0,1,3-3H54a3,3,0,0,1,3,3v3.525A9.031,9.031,0,0,1,61,36V57A7.008,7.008,0,0,1,54,64ZM38,24a1,1,0,0,0-1,1v4.079a1,1,0,0,1-.5.865A7.027,7.027,0,0,0,33,36V57a5.006,5.006,0,0,0,5,5H54a5.006,5.006,0,0,0,5-5V36a7.027,7.027,0,0,0-3.5-6.056,1,1,0,0,1-.5-.865V25a1,1,0,0,0-1-1Z"/><path d="M52,30H40a1,1,0,0,1-1-1V26h2v2H51V26h2v3A1,1,0,0,1,52,30Z"/><path d="M51,24H41a4,4,0,0,1-4-4V18a4,4,0,0,1,4-4H51a4,4,0,0,1,4,4v2A4,4,0,0,1,51,24ZM41,16a2,2,0,0,0-2,2v2a2,2,0,0,0,2,2H51a2,2,0,0,0,2-2V18a2,2,0,0,0-2-2Z"/><rect x="38" y="25" width="16" height="2"/><rect x="34" y="42" width="2" height="2"/><path d="M54,61H38a4,4,0,0,1-4-4V46h2V57a2,2,0,0,0,2,2H54a2,2,0,0,0,2-2V37.189h0c-.028,0-.1-.044-.2-.078A3.769,3.769,0,0,0,54.729,37a16.428,16.428,0,0,0-3.331.22c-.283.057-.563.129-.843.2-.422.107-.845.213-1.277.284a15.322,15.322,0,0,1-2.841.11,14.618,14.618,0,0,0-2.3.059c-.47.063-.943.176-1.443.295a9.871,9.871,0,0,1-2.758.393,10.308,10.308,0,0,1-2-.317c-.226-.052-.45-.1-.676-.147l-.395-.084A7.427,7.427,0,0,0,36,37.859V40H34V37a1,1,0,0,1,.616-.923,4.286,4.286,0,0,1,2.673-.017l.36.076c.244.048.488.1.732.159A8.565,8.565,0,0,0,40,36.563a9.15,9.15,0,0,0,2.229-.339,16.252,16.252,0,0,1,1.644-.332,16.555,16.555,0,0,1,2.613-.077,13.52,13.52,0,0,0,2.471-.085c.374-.06.74-.155,1.106-.248.312-.079.624-.157.939-.221A18.74,18.74,0,0,1,54.748,35a5.348,5.348,0,0,1,1.69.214,2.224,2.224,0,0,1,1.522,1.5A1,1,0,0,1,58,37V57A4,4,0,0,1,54,61Z"/><path d="M29,27H27V25.031a5.959,5.959,0,0,0-3-5.163,7.962,7.962,0,0,1-4-6.9V5h2v7.969a5.959,5.959,0,0,0,3,5.163,7.962,7.962,0,0,1,4,6.9Z"/><rect x="27" y="29" width="2" height="2"/><path d="M26,64H6a3,3,0,0,1-3-3V25.031a7.962,7.962,0,0,1,4-6.9,5.959,5.959,0,0,0,3-5.163V12h2v.969a7.962,7.962,0,0,1-4,6.9,5.959,5.959,0,0,0-3,5.163V61a1,1,0,0,0,1,1H26a1,1,0,0,0,1-1V33h2V61A3,3,0,0,1,26,64Z"/><rect x="10" y="5" width="2" height="5"/><path d="M21,6H11a3,3,0,0,1,0-6H21a3,3,0,0,1,0,6ZM11,2a1,1,0,0,0,0,2H21a1,1,0,0,0,0-2Z"/><path d="M16,31c-2.346,0-10-.217-10-3s7.654-3,10-3,10,.217,10,3S18.346,31,16,31ZM8.384,28A22.487,22.487,0,0,0,16,29a22.487,22.487,0,0,0,7.616-1A22.487,22.487,0,0,0,16,27,22.487,22.487,0,0,0,8.384,28Z"/><path d="M24,61H8a2,2,0,0,1-2-2V28H8V59H24V28h2V59A2,2,0,0,1,24,61Z"/><rect x="11" y="7" width="10" height="2"/><path d="M33,14c-5.537,0-7-4.579-7-7a1,1,0,0,1,1-1H39a1,1,0,0,1,1,1C40,9.421,38.537,14,33,14ZM28.105,8A4.587,4.587,0,0,0,33,12a4.611,4.611,0,0,0,4.89-4Z"/><path d="M61.6,10H39V8H61.6a.464.464,0,0,0,.4-.5.464.464,0,0,0-.4-.5H59.276L39.049,8l-.1-2L59.227,5H61.6A2.452,2.452,0,0,1,64,7.5,2.452,2.452,0,0,1,61.6,10Z"/><path d="M37.051,7.316,36,4.162a3.162,3.162,0,0,0-6,0L28.949,7.316l-1.9-.632L28.1,3.529a5.162,5.162,0,0,1,9.794,0l1.052,3.155Z"/></g></svg>