<svg xmlns="http://www.w3.org/2000/svg" viewBox="0 0 48 60" x="0px" y="0px"><title>27-lesson</title><g data-name="27-lesson"><path d="M41,28.465v-.636A3,3,0,0,0,40,22H36a3,3,0,0,0-1,5.829v.636A10.006,10.006,0,0,0,32.1,29.923L30,24.8V20a3,3,0,0,0,0-6H24a3,3,0,0,0,0,6v4.824L16.06,46.658A1,1,0,0,0,17,48H38a10,10,0,0,0,3-19.535Zm-4.778,1.741A1,1,0,0,0,37,29.23V27a1,1,0,0,0-1-1,1,1,0,0,1,0-2h4a1,1,0,0,1,0,2,1,1,0,0,0-1,1v2.23a1,1,0,0,0,.778.976A7.946,7.946,0,0,1,45.7,35.827a11.975,11.975,0,0,0-1.3.873,5.1,5.1,0,0,1-6.8,0A6.846,6.846,0,0,0,33,35a8.337,8.337,0,0,0-2.554.35A7.95,7.95,0,0,1,36.222,30.206ZM23,17a1,1,0,0,1,1-1h6a1,1,0,0,1,0,2H29a1,1,0,0,0-1,1v6a1,1,0,0,0,.074.379L29.146,28H24.973l.967-2.658A1.026,1.026,0,0,0,26,25V19a1,1,0,0,0-1-1H24A1,1,0,0,1,23,17ZM18.428,46l5.818-16h5.719l.553,1.353A9.961,9.961,0,0,0,28,37.94c0,.03,0,.052,0,.06a9.98,9.98,0,0,0,4.026,8ZM38,46a8.008,8.008,0,0,1-8-7.958c.063-.368.761-1.042,3-1.042a4.9,4.9,0,0,1,3.4,1.3,7.074,7.074,0,0,0,9.2,0c.137-.1.269-.2.4-.3A8.009,8.009,0,0,1,38,46Z"/><path d="M2,45V10H7a3,3,0,0,0,3-3V2H34a1,1,0,0,1,1,1V20h2V3a3,3,0,0,0-3-3H9a1,1,0,0,0-.707.293l-8,8A.994.994,0,0,0,0,9V45a3,3,0,0,0,3,3H14V46H3A1,1,0,0,1,2,45ZM7,8H3.414L8,3.414V7A1,1,0,0,1,7,8Z"/><path d="M33,9V7a3,3,0,0,0-3-3H28V6h2a1,1,0,0,1,1,1V9Z"/><rect x="24" y="4" width="2" height="2"/><rect x="10" y="16" width="9" height="2"/><rect x="6" y="21" width="13" height="2"/><rect x="6" y="26" width="13" height="2"/><rect x="6" y="31" width="13" height="2"/><rect x="6" y="16" width="2" height="2"/><path d="M8,40V39a1,1,0,0,1,1-1h8V36H9a3,3,0,0,0-3,3v1a3,3,0,0,0,3,3h5V41H9A1,1,0,0,1,8,40Z"/></g><text x="0" y="63" fill="#000000" font-size="5px" font-weight="bold" font-family="'Helvetica Neue', Helvetica, Arial-Unicode, Arial, Sans-serif">Created by Iconstock</text><text x="0" y="68" fill="#000000" font-size="5px" font-weight="bold" font-family="'Helvetica Neue', Helvetica, Arial-Unicode, Arial, Sans-serif">from the Noun Project</text></svg>