<?xml version="1.0" encoding="UTF-8" standalone="no"?>
<svg
   xmlns:dc="http://purl.org/dc/elements/1.1/"
   xmlns:cc="http://creativecommons.org/ns#"
   xmlns:rdf="http://www.w3.org/1999/02/22-rdf-syntax-ns#"
   xmlns:svg="http://www.w3.org/2000/svg"
   xmlns="http://www.w3.org/2000/svg"
   xmlns:sodipodi="http://sodipodi.sourceforge.net/DTD/sodipodi-0.dtd"
   xmlns:inkscape="http://www.inkscape.org/namespaces/inkscape"
   version="1.1"
   x="0px"
   y="0px"
   viewBox="0 0 100 100"
   xml:space="preserve"
   id="svg50"
   sodipodi:docname="reportIcon.svg"
   width="100"
   height="100"
   inkscape:version="0.92.3 (2405546, 2018-03-11)"><metadata
     id="metadata56"><rdf:RDF><cc:Work
         rdf:about=""><dc:format>image/svg+xml</dc:format><dc:type
           rdf:resource="http://purl.org/dc/dcmitype/StillImage" /><dc:title></dc:title></cc:Work></rdf:RDF></metadata><defs
     id="defs54" /><sodipodi:namedview
     pagecolor="#ffffff"
     bordercolor="#666666"
     borderopacity="1"
     objecttolerance="10"
     gridtolerance="10"
     guidetolerance="10"
     inkscape:pageopacity="0"
     inkscape:pageshadow="2"
     inkscape:window-width="1920"
     inkscape:window-height="1017"
     id="namedview52"
     showgrid="false"
     inkscape:zoom="1.2747803"
     inkscape:cx="256"
     inkscape:cy="319.66566"
     inkscape:window-x="-8"
     inkscape:window-y="-8"
     inkscape:window-maximized="1"
     inkscape:current-layer="svg50" /><g
     id="g888"
     style="fill:#ffffff"
     transform="matrix(0.2127655,0,0,0.2127655,-4.467968,-4.4678616)"><g
       id="g44"
       style="fill:#ffffff"><g
         id="g42"
         style="fill:#ffffff"><g
           id="g40"
           style="fill:#ffffff"><path
             id="path2"
             d="m 290.938,176 h -130 c -2.761,0 -5,2.239 -5,5 0,2.761 2.239,5 5,5 h 130 c 2.762,0 5,-2.239 5,-5 0,-2.761 -2.239,-5 -5,-5 z"
             style="fill:#ffffff"
             inkscape:connector-curvature="0" /><path
             id="path4"
             d="m 160.938,216 h 80 c 2.761,0 5,-2.239 5,-5 0,-2.761 -2.239,-5 -5,-5 h -80 c -2.761,0 -5,2.239 -5,5 0,2.761 2.238,5 5,5 z"
             style="fill:#ffffff"
             inkscape:connector-curvature="0" /><path
             id="path6"
             d="m 290.938,236 h -80 c -2.761,0 -5,2.239 -5,5 0,2.761 2.239,5 5,5 h 80 c 2.762,0 5,-2.239 5,-5 0,-2.761 -2.239,-5 -5,-5 z"
             style="fill:#ffffff"
             inkscape:connector-curvature="0" /><path
             id="path8"
             d="m 290.938,266 h -80 c -2.761,0 -5,2.238 -5,5 0,2.762 2.239,5 5,5 h 80 c 2.762,0 5,-2.238 5,-5 0,-2.762 -2.239,-5 -5,-5 z"
             style="fill:#ffffff"
             inkscape:connector-curvature="0" /><path
             id="path10"
             d="m 300.938,406 c 1.279,0 2.56,-0.488 3.535,-1.465 l 20,-20 c 1.953,-1.952 1.953,-5.118 0,-7.07 -1.951,-1.953 -5.119,-1.953 -7.07,0 l -20,20 c -1.953,1.952 -1.953,5.118 0,7.07 0.975,0.977 2.255,1.465 3.535,1.465 z"
             style="fill:#ffffff"
             inkscape:connector-curvature="0" /><path
             id="path12"
             d="m 400.938,436 c 8.271,0 15,-6.729 15,-15 0,-8.271 -6.729,-15 -15,-15 -8.271,0 -15,6.729 -15,15 0,8.271 6.728,15 15,15 z"
             style="fill:#ffffff"
             inkscape:connector-curvature="0" /><path
             id="path14"
             d="m 62.197,375.77 c 0,-15.362 5.386,-29.859 15.234,-41.354 L 58.874,315.859 c -14.741,16.455 -22.812,37.535 -22.812,59.91 0,1.126 0.041,2.245 0.082,3.363 0.023,-0.003 0.043,-0.012 0.067,-0.015 l 25.993,-3.077 c -10e-4,-0.09 -0.007,-0.18 -0.007,-0.27 z"
             style="fill:#ffffff"
             inkscape:connector-curvature="0" /><path
             id="path16"
             d="m 340.938,346 c -8.271,0 -15,6.729 -15,15 0,8.271 6.729,15 15,15 8.271,0 15,-6.729 15,-15 0,-8.271 -6.729,-15 -15,-15 z"
             style="fill:#ffffff"
             inkscape:connector-curvature="0" /><path
             id="path18"
             d="m 127.396,377.311 c -0.042,0.043 -0.094,0.072 -0.138,0.113 -0.125,0.117 -0.26,0.223 -0.397,0.326 -0.123,0.093 -0.245,0.185 -0.375,0.265 -0.142,0.089 -0.292,0.163 -0.443,0.237 -0.144,0.07 -0.288,0.139 -0.438,0.194 -0.148,0.056 -0.302,0.098 -0.458,0.139 -0.169,0.046 -0.338,0.086 -0.512,0.113 -0.064,0.011 -0.122,0.034 -0.187,0.042 l -51.483,6.096 c 1.834,10.902 6.955,20.932 14.896,28.872 12.579,12.579 30.614,18.026 48.245,14.573 2.712,-0.536 5.337,1.235 5.868,3.945 0.531,2.71 -1.235,5.337 -3.945,5.867 -4.131,0.81 -8.282,1.206 -12.398,1.206 -16.711,0 -32.856,-6.536 -44.841,-18.521 -9.549,-9.549 -15.667,-21.636 -17.768,-34.766 l -25.635,3.035 c -0.121,0.015 -0.239,0.016 -0.358,0.021 2.782,18.994 11.515,36.49 25.276,50.252 34.96,34.96 91.912,34.893 126.954,-0.147 34.444,-34.445 34.927,-90.154 1.502,-125.228 z"
             style="fill:#ffffff"
             inkscape:connector-curvature="0" /><path
             id="path20"
             d="m 163.255,324.459 c 0.567,0.414 1.019,0.928 1.354,1.496 l 18.864,-18.863 c -16.671,-14.017 -37.252,-21.05 -57.828,-21.05 -21.394,0 -42.763,7.585 -59.702,22.746 l 18.563,18.563 c 22.057,-18.738 55.03,-20.221 78.749,-2.892 z"
             style="fill:#ffffff"
             inkscape:connector-curvature="0" /><path
             id="path22"
             d="m 72.219,374.855 40.818,-4.833 -28.518,-28.518 c -7.783,9.357 -12.096,21.003 -12.3,33.351 z"
             style="fill:#ffffff"
             inkscape:connector-curvature="0" /><path
             id="path24"
             d="m 157.781,332.783 c -0.142,-0.084 -0.29,-0.15 -0.426,-0.25 -19.773,-14.446 -47.179,-13.39 -65.756,1.91 l 32.261,32.261 z"
             style="fill:#ffffff"
             inkscape:connector-curvature="0" /><path
             id="path26"
             d="m 280.938,406 c -8.271,0 -15,6.729 -15,15 0,8.271 6.729,15 15,15 8.271,0 15,-6.729 15,-15 0,-8.271 -6.729,-15 -15,-15 z"
             style="fill:#ffffff"
             inkscape:connector-curvature="0" /><rect
             id="rect28"
             height="50"
             width="80"
             y="186"
             x="335.93799"
             style="fill:#ffffff" /><path
             id="path30"
             d="m 460.938,346 c -8.271,0 -15,6.729 -15,15 0,8.271 6.729,15 15,15 8.271,0 15,-6.729 15,-15 0,-8.271 -6.729,-15 -15,-15 z"
             style="fill:#ffffff"
             inkscape:connector-curvature="0" /><path
             id="path32"
             d="m 420.938,406 c 1.279,0 2.56,-0.488 3.535,-1.465 l 20,-20 c 1.953,-1.952 1.953,-5.118 0,-7.07 -1.951,-1.953 -5.119,-1.953 -7.07,0 l -20,20 c -1.953,1.952 -1.953,5.118 0,7.07 0.975,0.977 2.255,1.465 3.535,1.465 z"
             style="fill:#ffffff"
             inkscape:connector-curvature="0" /><path
             id="path34"
             d="m 377.402,404.535 c 0.976,0.977 2.256,1.465 3.535,1.465 1.279,0 2.56,-0.488 3.535,-1.465 1.953,-1.952 1.953,-5.118 0,-7.07 l -20,-20 c -1.951,-1.953 -5.119,-1.953 -7.07,0 -1.953,1.952 -1.953,5.118 0,7.07 z"
             style="fill:#ffffff"
             inkscape:connector-curvature="0" /><path
             id="path36"
             d="m 460.938,391 c -5.522,0 -10,4.478 -10,10 v 70 h -220 c -5.523,0 -10,4.478 -10,10 0,5.522 4.477,10 10,10 h 230 c 5.522,0 10,-4.478 10,-10 v -80 c 0,-5.522 -4.478,-10 -10,-10 z"
             style="fill:#ffffff"
             inkscape:connector-curvature="0" /><path
             id="path38"
             d="m 120.938,251 c 5.523,0 10,-4.477 10,-10 V 41 h 258.67 v 35 h -223.67 v 60 h 250 v -25 h 35 v 210 c 0,5.522 4.478,10 10,10 5.522,0 10,-4.478 10,-10 V 92.33 c 0,-2.652 -1.054,-5.196 -2.929,-7.071 l -61.33,-61.33 c -0.048,-0.047 -0.1,-0.088 -0.147,-0.134 -0.188,-0.179 -0.375,-0.356 -0.576,-0.521 -0.074,-0.062 -0.154,-0.114 -0.23,-0.173 -0.182,-0.142 -0.364,-0.283 -0.557,-0.412 -0.063,-0.042 -0.129,-0.076 -0.191,-0.116 -0.213,-0.136 -0.428,-0.27 -0.65,-0.39 -0.043,-0.022 -0.086,-0.04 -0.129,-0.062 -0.247,-0.128 -0.498,-0.25 -0.758,-0.358 -0.027,-0.012 -0.057,-0.02 -0.086,-0.032 -0.271,-0.11 -0.549,-0.212 -0.832,-0.298 -0.033,-0.01 -0.068,-0.016 -0.102,-0.026 -0.277,-0.081 -0.558,-0.155 -0.844,-0.212 -0.084,-0.017 -0.17,-0.024 -0.254,-0.039 -0.237,-0.041 -0.475,-0.083 -0.717,-0.107 -0.33,-0.033 -0.663,-0.05 -0.998,-0.05 h -278.67 c -5.523,0 -10,4.477 -10,10 v 210 c 0,5.524 4.477,10.001 10,10.001 z M 409.607,55.143 445.465,91 H 409.608 V 55.143 Z"
             style="fill:#ffffff"
             inkscape:connector-curvature="0" /></g></g></g></g></svg>