<svg xmlns="http://www.w3.org/2000/svg" xmlns:xlink="http://www.w3.org/1999/xlink" version="1.1" x="0px" y="0px" viewBox="0 0 64 64" style="enable-background:new 0 0 64 64;" xml:space="preserve" fill="white"><title>Wholesaler-warehouse-product-stock-factory-shipping-supplier-supply</title><rect x="31" y="27" width="4" height="2"/><rect x="43" y="27" width="4" height="2"/><rect x="43" y="35" width="4" height="2"/><rect x="31" y="35" width="4" height="2"/><rect x="31" y="43" width="4" height="2"/><rect x="43" y="43" width="4" height="2"/><rect x="42" y="56" width="2" height="2"/><path d="M59,17.4L32,1.8L5,17.4V42h2V18.6L32,4.2l25,14.4V60H47c0.5-0.6,0.8-1.3,0.9-2H52c1.7,0,3-1.3,3-3v-5c0-1.7-1.3-3-3-3V26  c0-1.6-1.3-3-2.9-3H28.9c-1.6,0-2.9,1.4-2.9,3v21h-2V30h-2v2h-4.8c-1.1,0-2.1,0.6-2.6,1.6L7.4,47.1C7.1,47.5,7,48,7,48.5V55  c0,1.7,1.3,3,3,3h2.1c0.2,0.7,0.5,1.4,0.9,2H2v2h60v-2h-3V17.4z M21.9,58h16.2c0.2,0.7,0.5,1.4,0.9,2H21  C21.4,59.4,21.7,58.7,21.9,58z M40,57c0-1.7,1.3-3,3-3s3,1.3,3,3s-1.3,3-3,3C41.3,60,40,58.7,40,57z M40,47v-6h10v6H40z M40,33h10v6  H40V33z M38,39H28v-6h10V39z M50,26v5H40v-6h9.1C49.6,25,50,25.5,50,26z M28.9,25H38v6H28v-5C28,25.5,28.4,25,28.9,25z M28,41h10v6  H28V41z M16.3,34.5c0.2-0.3,0.5-0.5,0.9-0.5H22v13H9.7L16.3,34.5z M9,55v-6h43c0.6,0,1,0.4,1,1v5c0,0.6-0.4,1-1,1h-4.1  c-0.6-2.7-3.2-4.5-5.9-3.9c-2,0.4-3.5,1.9-3.9,3.9H21.9c-0.6-2.7-3.2-4.5-5.9-3.9c-2,0.4-3.5,1.9-3.9,3.9H10C9.4,56,9,55.6,9,55z   M14,57c0-1.7,1.3-3,3-3s3,1.3,3,3s-1.3,3-3,3C15.3,60,14,58.7,14,57z"/><rect x="16" y="56" width="2" height="2"/><path d="M38,11.4l-6-3.6l-6,3.6V20h12V11.4z M28,12.6l3-1.8V18h-3V12.6z M36,18h-3v-7.2l3,1.8V18z"/></svg>