<?xml version="1.0" encoding="UTF-8" standalone="no"?>
<!-- Created with Inkscape (http://www.inkscape.org/) -->

<svg
   xmlns:dc="http://purl.org/dc/elements/1.1/"
   xmlns:cc="http://creativecommons.org/ns#"
   xmlns:rdf="http://www.w3.org/1999/02/22-rdf-syntax-ns#"
   xmlns:svg="http://www.w3.org/2000/svg"
   xmlns="http://www.w3.org/2000/svg"
   xmlns:xlink="http://www.w3.org/1999/xlink"
   xmlns:sodipodi="http://sodipodi.sourceforge.net/DTD/sodipodi-0.dtd"
   xmlns:inkscape="http://www.inkscape.org/namespaces/inkscape"
   width="100mm"
   height="100mm"
   viewBox="0 0 100 100"
   version="1.1"
   id="svg8"
   inkscape:version="0.92.3 (2405546, 2018-03-11)"
   sodipodi:docname="Brewery304 - Logo (solidBlack).svg"
   inkscape:export-filename="D:\Ricqua\2019 - CMC Korea\2019 - Bilpo\Marketing\Merchandise\Beer bottle opener\LSS - Bottle Opener Av1.png"
   inkscape:export-xdpi="96.012001"
   inkscape:export-ydpi="96.012001">
  <defs
     id="defs2">
    <linearGradient
       id="linearGradient991"
       inkscape:collect="always">
      <stop
         id="stop987"
         offset="0"
         style="stop-color:#808080;stop-opacity:1" />
      <stop
         id="stop989"
         offset="1"
         style="stop-color:#cccccc;stop-opacity:1" />
    </linearGradient>
    <clipPath
       clipPathUnits="userSpaceOnUse"
       id="clipPath12799">
      <circle
         r="23.977112"
         cy="199.28906"
         cx="-137.35786"
         id="circle12801"
         style="opacity:1;fill:#48380b;fill-opacity:1;stroke:none;stroke-width:0.0188203;stroke-linecap:square;stroke-linejoin:miter;stroke-miterlimit:3.5999999;stroke-dasharray:none;stroke-dashoffset:0;stroke-opacity:1;paint-order:normal" />
    </clipPath>
    <clipPath
       clipPathUnits="userSpaceOnUse"
       id="clipPath3732">
      <circle
         r="23.977112"
         cy="199.28906"
         cx="-137.35786"
         id="circle3730"
         style="opacity:1;fill:#48380b;fill-opacity:1;stroke:none;stroke-width:0.0188203;stroke-linecap:square;stroke-linejoin:miter;stroke-miterlimit:3.5999999;stroke-dasharray:none;stroke-dashoffset:0;stroke-opacity:1;paint-order:normal" />
    </clipPath>
    <clipPath
       clipPathUnits="userSpaceOnUse"
       id="clipPath967">
      <path
         inkscape:connector-curvature="0"
         id="path969"
         d="m 139.40145,149.86905 c 0,-2.4455 -1.96922,-4.4142 -4.41471,-4.4142 H 99.019939 c -2.445498,0 -4.414199,1.9687 -4.414199,4.4142 v 92.96693 c 0,2.4455 1.968701,4.4142 4.414199,4.4142 h 35.966801 c 2.44549,0 4.41471,-1.9687 4.41471,-4.4142 z m -5.85752,7.94215 v 21.5315 c 0,1.74678 -1.40651,3.15278 -3.15329,3.15278 h -26.77408 c -1.74678,0 -3.1533,-1.406 -3.1533,-3.15278 v -21.5315 c 0,-1.74678 1.40652,-3.15278 3.1533,-3.15278 h 26.77408 c 1.74678,0 3.15329,1.406 3.15329,3.15278 z"
         style="opacity:1;fill:none;fill-opacity:1;fill-rule:nonzero;stroke:#4d4d4d;stroke-width:0.20467129;stroke-linecap:round;stroke-linejoin:round;stroke-miterlimit:4;stroke-dasharray:none;stroke-dashoffset:0;stroke-opacity:1;paint-order:normal" />
    </clipPath>
    <linearGradient
       inkscape:collect="always"
       xlink:href="#linearGradient991"
       id="linearGradient977"
       x1="376.80814"
       y1="663.67474"
       x2="431.95084"
       y2="638.64899"
       gradientUnits="userSpaceOnUse" />
  </defs>
  <sodipodi:namedview
     id="base"
     pagecolor="#ffffff"
     bordercolor="#666666"
     borderopacity="1.0"
     inkscape:pageopacity="0.0"
     inkscape:pageshadow="2"
     inkscape:zoom="0.21640501"
     inkscape:cx="1082.5507"
     inkscape:cy="111.30744"
     inkscape:document-units="mm"
     inkscape:current-layer="layer1"
     showgrid="false"
     inkscape:window-width="1920"
     inkscape:window-height="1017"
     inkscape:window-x="1912"
     inkscape:window-y="-8"
     inkscape:window-maximized="1"
     inkscape:snap-page="true"
     inkscape:snap-bbox="true"
     showguides="true"
     inkscape:guide-bbox="true" />
  <metadata
     id="metadata5">
    <rdf:RDF>
      <cc:Work
         rdf:about="">
        <dc:format>image/svg+xml</dc:format>
        <dc:type
           rdf:resource="http://purl.org/dc/dcmitype/StillImage" />
        <dc:title></dc:title>
      </cc:Work>
    </rdf:RDF>
  </metadata>
  <g
     inkscape:label="Layer 1"
     inkscape:groupmode="layer"
     id="layer1"
     transform="translate(0,-197)">
    <g
       id="g3243"
       transform="matrix(1.9989525,0,0,1.9989525,-533.99775,-24.789822)"
       style="fill:#1a1a1a"
       inkscape:export-xdpi="96"
       inkscape:export-ydpi="96">
      <g
         inkscape:export-ydpi="95.943718"
         inkscape:export-xdpi="95.943718"
         aria-label="BREWERY"
         style="font-style:normal;font-variant:normal;font-weight:normal;font-stretch:normal;font-size:5.88738108px;line-height:1.25;font-family:Arial;-inkscape-font-specification:'Arial, Normal';font-variant-ligatures:normal;font-variant-caps:normal;font-variant-numeric:normal;font-feature-settings:normal;text-align:center;letter-spacing:0px;word-spacing:0px;writing-mode:lr-tb;text-anchor:middle;fill:#1a1a1a;fill-opacity:1;stroke:none;stroke-width:0.36796132"
         id="g1047"
         transform="matrix(0.99904492,0,0,0.99904492,40.488731,19.477018)">
        <path
           d="m 228.08154,141.11473 v -3.56175 h -0.59506 v -0.14661 h 1.99216 q 0.32772,0 0.55194,0.0345 0.22423,0.0316 0.43121,0.16961 0.20698,0.13799 0.29609,0.34209 0.092,0.20123 0.092,0.38233 0,0.68706 -1.05501,0.89979 v 0.0144 q 1.19012,0.1926 1.19012,0.98889 0,0.19548 -0.10636,0.41396 -0.10636,0.2156 -0.33921,0.37371 -0.23285,0.15811 -0.4772,0.19836 -0.24148,0.0374 -0.60944,0.0374 h -1.96629 v -0.14661 z m 1.27349,-3.56175 h -0.58931 v 1.61845 h 0.52894 q 0.53757,0 0.68706,-0.20985 0.14948,-0.20985 0.14948,-0.66118 0,-0.35359 -0.0977,-0.51457 -0.0977,-0.16099 -0.2501,-0.19548 -0.14948,-0.0374 -0.42833,-0.0374 z m -0.0661,1.76506 h -0.52319 v 1.79669 h 0.54044 q 0.30184,0 0.48008,-0.046 0.1811,-0.046 0.30759,-0.24435 0.12648,-0.20123 0.12648,-0.62956 0,-0.45707 -0.1926,-0.66693 -0.18973,-0.20985 -0.7388,-0.20985 z"
           style="font-style:normal;font-variant:normal;font-weight:normal;font-stretch:normal;font-family:'Bodoni MT';-inkscape-font-specification:'Bodoni MT';letter-spacing:3.13308406px;fill:#1a1a1a;stroke-width:0.36796132"
           id="path1033"
           inkscape:connector-curvature="0" />
        <path
           d="m 235.44905,141.11473 v -3.56175 h -0.60656 v -0.14661 h 2.1129 q 0.41396,0 0.67843,0.0719 0.26735,0.0719 0.45996,0.29897 0.1926,0.22423 0.1926,0.51745 0,0.36509 -0.28172,0.59219 -0.28172,0.2271 -0.9544,0.34209 v 0.0144 q 0.48295,0.0949 0.79054,0.36796 0.31047,0.2731 0.31047,0.92565 0,0.37371 0.0862,0.48008 0.0891,0.10349 0.24435,0.10349 0.10061,0 0.24147,-0.0402 v 0.14086 q -0.25009,0.0862 -0.48295,0.0862 -0.47432,0 -0.6698,-0.26447 -0.19548,-0.26447 -0.18973,-0.51745 l 0.0115,-0.48869 q 0,-0.25585 -0.16386,-0.50308 -0.16098,-0.25009 -0.73592,-0.25009 h -0.35934 v 1.83118 h 0.60656 v 0.14661 h -1.8973 v -0.14661 z m 0.68418,-3.56175 v 1.59545 h 0.51745 q 0.33346,0 0.50882,-0.0431 0.17536,-0.046 0.27884,-0.23285 0.10637,-0.18973 0.10637,-0.60081 0,-0.33634 -0.10637,-0.49157 -0.10636,-0.15524 -0.25872,-0.18973 -0.14948,-0.0374 -0.39383,-0.0374 z"
           style="font-style:normal;font-variant:normal;font-weight:normal;font-stretch:normal;font-family:'Bodoni MT';-inkscape-font-specification:'Bodoni MT';letter-spacing:3.13308406px;fill:#1a1a1a;stroke-width:0.36796132"
           id="path1035"
           inkscape:connector-curvature="0" />
        <path
           d="m 243.67323,137.55298 v 1.65295 h 0.34784 q 0.18398,0 0.31046,-0.0345 0.12936,-0.0374 0.22998,-0.19548 0.10349,-0.15811 0.11786,-0.49445 h 0.14949 v 1.63283 h -0.14949 q -0.023,-0.4657 -0.1811,-0.61231 -0.15524,-0.14948 -0.4772,-0.14948 h -0.34784 v 1.76219 h 0.78479 q 0.66693,0 0.92278,-0.27885 0.25872,-0.28172 0.30759,-0.86528 h 0.14661 l -0.0374,1.29074 h -3.41802 v -0.14661 h 0.61231 v -3.56175 h -0.61231 v -0.14661 h 3.27716 l 0.0661,1.02914 h -0.14661 q -0.0747,-0.46858 -0.3076,-0.67555 -0.23285,-0.20698 -0.77616,-0.20698 z"
           style="font-style:normal;font-variant:normal;font-weight:normal;font-stretch:normal;font-family:'Bodoni MT';-inkscape-font-specification:'Bodoni MT';letter-spacing:3.13308406px;fill:#1a1a1a;stroke-width:0.36796132"
           id="path1037"
           inkscape:connector-curvature="0" />
        <path
           d="m 252.5787,138.69998 0.69856,1.69607 1.05501,-2.84307 h -0.56057 v -0.14661 h 1.12114 v 0.14661 h -0.39671 l -1.42298,3.79747 h -0.10061 l -0.73593,-1.78518 -0.71867,1.78518 h -0.10636 l -1.54659,-3.79747 h -0.43121 v -0.14661 h 4.02171 v 0.14661 h -0.41396 z m -0.4657,-1.147 0.38809,0.94577 0.38233,-0.94577 z m -0.38233,2.87757 0.42258,-1.06364 -0.74167,-1.81393 h -0.85379 z"
           style="font-style:normal;font-variant:normal;font-weight:normal;font-stretch:normal;font-family:'Bodoni MT';-inkscape-font-specification:'Bodoni MT';letter-spacing:3.13308406px;fill:#1a1a1a;stroke-width:0.36796132"
           id="path1039"
           inkscape:connector-curvature="0" />
        <path
           d="m 259.75936,137.55298 v 1.65295 h 0.34784 q 0.18398,0 0.31047,-0.0345 0.12936,-0.0374 0.22997,-0.19548 0.10349,-0.15811 0.11787,-0.49445 h 0.14948 v 1.63283 h -0.14948 q -0.023,-0.4657 -0.18111,-0.61231 -0.15523,-0.14948 -0.4772,-0.14948 h -0.34784 v 1.76219 h 0.7848 q 0.66693,0 0.92277,-0.27885 0.25873,-0.28172 0.3076,-0.86528 h 0.14661 l -0.0374,1.29074 h -3.41801 v -0.14661 h 0.61231 v -3.56175 h -0.61231 v -0.14661 h 3.27715 l 0.0661,1.02914 h -0.14661 q -0.0747,-0.46858 -0.30759,-0.67555 -0.23285,-0.20698 -0.77617,-0.20698 z"
           style="font-style:normal;font-variant:normal;font-weight:normal;font-stretch:normal;font-family:'Bodoni MT';-inkscape-font-specification:'Bodoni MT';letter-spacing:3.13308406px;fill:#1a1a1a;stroke-width:0.36796132"
           id="path1041"
           inkscape:connector-curvature="0" />
        <path
           d="m 266.39095,141.11473 v -3.56175 h -0.60656 v -0.14661 h 2.11291 q 0.41395,0 0.67842,0.0719 0.26735,0.0719 0.45996,0.29897 0.1926,0.22423 0.1926,0.51745 0,0.36509 -0.28172,0.59219 -0.28172,0.2271 -0.9544,0.34209 v 0.0144 q 0.48295,0.0949 0.79054,0.36796 0.31047,0.2731 0.31047,0.92565 0,0.37371 0.0862,0.48008 0.0891,0.10349 0.24435,0.10349 0.10061,0 0.24147,-0.0402 v 0.14086 q -0.25009,0.0862 -0.48294,0.0862 -0.47433,0 -0.66981,-0.26447 -0.19548,-0.26447 -0.18973,-0.51745 l 0.0115,-0.48869 q 0,-0.25585 -0.16386,-0.50308 -0.16098,-0.25009 -0.73592,-0.25009 h -0.35934 v 1.83118 h 0.60656 v 0.14661 h -1.8973 v -0.14661 z m 0.68418,-3.56175 v 1.59545 h 0.51745 q 0.33346,0 0.50882,-0.0431 0.17536,-0.046 0.27884,-0.23285 0.10637,-0.18973 0.10637,-0.60081 0,-0.33634 -0.10637,-0.49157 -0.10636,-0.15524 -0.25872,-0.18973 -0.14948,-0.0374 -0.39383,-0.0374 z"
           style="font-style:normal;font-variant:normal;font-weight:normal;font-stretch:normal;font-family:'Bodoni MT';-inkscape-font-specification:'Bodoni MT';letter-spacing:3.13308406px;fill:#1a1a1a;stroke-width:0.36796132"
           id="path1043"
           inkscape:connector-curvature="0" />
        <path
           d="m 272.74082,137.40637 h 1.92605 v 0.14661 h -0.63531 l 1.12976,1.70182 1.11251,-1.70182 h -0.69855 v -0.14661 h 1.36548 v 0.14661 h -0.5002 l -1.20737,1.84268 v 1.71907 h 0.64105 v 0.14661 h -1.97779 v -0.14661 h 0.65256 v -1.61846 l -1.29362,-1.94329 h -0.51457 z"
           style="font-style:normal;font-variant:normal;font-weight:normal;font-stretch:normal;font-family:'Bodoni MT';-inkscape-font-specification:'Bodoni MT';letter-spacing:3.13308406px;fill:#1a1a1a;stroke-width:0.36796132"
           id="path1045"
           inkscape:connector-curvature="0" />
      </g>
      <path
         inkscape:export-ydpi="95.943718"
         inkscape:export-xdpi="95.943718"
         inkscape:connector-curvature="0"
         style="color:#000000;font-style:normal;font-variant:normal;font-weight:normal;font-stretch:normal;font-size:medium;line-height:normal;font-family:sans-serif;font-variant-ligatures:normal;font-variant-position:normal;font-variant-caps:normal;font-variant-numeric:normal;font-variant-alternates:normal;font-feature-settings:normal;text-indent:0;text-align:start;text-decoration:none;text-decoration-line:none;text-decoration-style:solid;text-decoration-color:#000000;letter-spacing:normal;word-spacing:normal;text-transform:none;writing-mode:lr-tb;direction:ltr;text-orientation:mixed;dominant-baseline:auto;baseline-shift:baseline;text-anchor:start;white-space:normal;shape-padding:0;clip-rule:nonzero;display:inline;overflow:visible;visibility:visible;opacity:1;isolation:auto;mix-blend-mode:normal;color-interpolation:sRGB;color-interpolation-filters:linearRGB;solid-color:#000000;solid-opacity:1;vector-effect:none;fill:#1a1a1a;fill-opacity:1;fill-rule:nonzero;stroke:none;stroke-width:0.37478134px;stroke-linecap:butt;stroke-linejoin:miter;stroke-miterlimit:4;stroke-dasharray:none;stroke-dashoffset:0;stroke-opacity:1;color-rendering:auto;image-rendering:auto;shape-rendering:auto;text-rendering:auto;enable-background:accumulate"
         d="m 267.13935,150.69164 v 0.52608 h 15.22947 v -0.52608 z m 34.76567,0 v 0.52608 h 15.22945 v -0.52608 z"
         id="path1049" />
      <path
         inkscape:export-ydpi="95.943718"
         inkscape:export-xdpi="95.943718"
         inkscape:connector-curvature="0"
         style="fill:#1a1a1a;stroke:none;stroke-width:0.75;stroke-linecap:butt;stroke-linejoin:miter;stroke-miterlimit:4;stroke-dasharray:none;stroke-opacity:1"
         d="m 292.25798,111.23978 a 1.6868949,1.6868949 0 0 0 -1.68717,1.68666 1.6868949,1.6868949 0 0 0 1.68717,1.68717 1.6868949,1.6868949 0 0 0 1.68666,-1.68717 1.6868949,1.6868949 0 0 0 -1.68666,-1.68666 z m 18.90635,4.57777 c -0.50321,0 -0.78265,0.1306 -1.3418,0.87611 -0.54893,0.73197 -5.74005,8.17633 -8.18752,11.60577 -0.4705,-2.73798 -0.73498,-3.5303 -1.44349,-4.76363 -0.71165,-1.23882 -2.34565,-4.1909 -6.03573,-4.84985 -0.46126,-0.0824 -0.90811,-0.12968 -1.3392,-0.14507 -3.01765,-0.10775 -5.28352,1.33125 -6.62117,2.99179 -1.5285,1.89744 -2.71449,4.66438 -3.03103,8.80139 -1.04374,-0.89918 -2.56594,-1.24972 -3.33408,-1.28965 -1.01477,-0.0527 -1.55524,-0.0659 -1.56843,-0.27672 -0.0132,-0.21087 0.94906,-0.54024 2.26695,-1.30462 1.31788,-0.76437 3.00469,-1.66044 3.00469,-4.48071 0,-2.82029 -2.89945,-4.48123 -6.72133,-4.48123 -5.69326,0.21086 -8.01114,4.7439 -8.13229,4.96756 -0.12119,0.22364 -0.18623,0.30742 -0.0558,0.58699 0.13046,0.27957 0.67094,0.55883 0.93187,0.54983 0.26092,-0.009 0.20486,-0.0841 0.4285,-0.47548 0.80143,-1.24873 2.8741,-2.70295 3.82299,-2.94016 0.94888,-0.23723 3.34723,-0.0262 4.08525,1.84515 0.73802,1.8714 -0.60631,4.08522 -1.87148,5.08681 -1.26517,1.0016 -5.65365,2.75427 -5.93041,2.8333 -0.2768,0.0791 -0.32957,0.13178 -0.36913,0.25039 -0.28605,1.06758 0.61954,1.76631 0.84359,1.83224 0.22403,0.0659 0.19783,0.0131 0.3428,-0.14507 0.14496,-0.15815 1.55488,-1.59476 3.86119,-1.59476 2.3063,0 4.82352,2.1217 4.82352,6.43119 0,4.30949 -3.2947,6.70805 -4.65212,7.05071 -1.35743,0.34265 -1.96337,0.17144 -2.93861,-1.33095 -0.97524,-1.50239 -1.93768,-1.66033 -2.55709,-1.66033 -0.6194,0 -2.30618,0.30289 -2.30618,2.16111 0,1.85821 1.47591,3.21554 4.98149,3.03103 3.50558,-0.18451 6.99825,-1.6997 9.48906,-3.76878 2.02065,-1.67852 2.63963,-2.83128 2.97217,-3.66603 1.80895,4.54497 5.05379,5.73473 7.96606,5.73473 4.32267,0 6.98475,-3.00462 8.329,-6.48385 0.2144,-0.55493 0.38826,-1.1299 0.53331,-1.7135 h 5.18853 c 0.48456,0 0.65204,0.22384 0.65204,0.67115 v 2.98198 c 0,1.80787 -0.54042,2.23664 -1.13683,2.36711 -0.59641,0.13046 -1.99404,0.20476 -2.47862,0.26071 -0.48455,0.0559 -0.59648,0.26086 -0.54053,0.76408 0.0559,0.50323 0.26101,0.727 0.70832,0.68974 0.4473,-0.0373 3.87664,-0.14921 5.55404,-0.14921 1.67738,0 5.72165,0.16779 5.96396,0.16779 0.24229,0 0.50336,-0.0185 0.50336,-0.78266 0,-0.76413 -0.26126,-0.68964 -0.80177,-0.72691 -0.5405,-0.0373 -1.41649,-0.22358 -1.84515,-0.5777 -0.42864,-0.35412 -0.52195,-1.58432 -0.52195,-2.55348 v -2.38569 c 0,-0.48457 0.22407,-0.65205 0.5968,-0.65205 h 2.88855 c 0.31683,0 0.65256,-0.37268 0.65256,-1.13683 0,-0.76415 -0.27956,-1.27674 -0.7455,-1.27674 h -2.59992 c -0.41936,0 -0.71764,-0.028 -0.71764,-0.71761 v -8.18186 c 0,-0.67095 -0.41021,-0.82035 -1.04389,-0.63398 -0.63368,0.18638 -3.33593,1.13688 -3.78323,1.30462 -0.4473,0.16774 -0.68044,0.50329 -0.68044,1.26744 v 6.25307 c 0,0.54981 -0.17697,0.77338 -0.77338,0.77338 h -4.63043 c 0.1188,-1.02453 0.15781,-2.04323 0.13939,-3.01348 1.66975,-2.30292 10.53861,-14.53726 10.86492,-15.10247 0.35735,-0.61894 0.16769,-0.87611 -0.35415,-0.87611 z m -18.74837,4.55506 c 2.3722,0 3.6108,4.53388 3.6108,12.33577 0,7.80189 -2.00317,10.67442 -3.42649,10.67442 -1.42332,0 -3.55814,-1.60764 -3.55814,-11.86081 0,-10.25315 2.63582,-11.14938 3.37383,-11.14938 z"
         id="path1051" />
      <g
         inkscape:export-ydpi="95.943718"
         inkscape:export-xdpi="95.943718"
         aria-label="敦義門"
         style="font-style:normal;font-variant:normal;font-weight:normal;font-stretch:normal;font-size:5.18458796px;line-height:1.25;font-family:Arial;-inkscape-font-specification:'Arial, Normal';font-variant-ligatures:normal;font-variant-caps:normal;font-variant-numeric:normal;font-feature-settings:normal;text-align:center;letter-spacing:0px;word-spacing:0px;writing-mode:lr-tb;text-anchor:middle;fill:#1a1a1a;fill-opacity:1;stroke:none;stroke-width:0.32403675"
         id="g1059"
         transform="matrix(0.99904492,0,0,0.99904492,40.488731,19.494333)">
        <path
           d="m 245.59155,129.18871 0.0411,-0.0616 q 0.3901,0.22586 0.49276,0.34904 0.10265,0.12319 0.10265,0.18479 0,0.0821 -0.0821,0.20531 -0.0821,0.10267 -0.10266,0.10267 -0.0615,0 -0.12319,-0.18479 -0.0821,-0.28745 -0.32851,-0.59542 z m -0.22584,1.39616 v 0.51329 h 1.08818 v -0.51329 z m 1.35509,0.0616 q 0,0.4517 0.0205,0.61596 l -0.28744,0.14373 v -0.18479 h -1.08818 v 0.14372 l -0.28746,0.12319 q 0.0206,-0.30798 0.0206,-0.59542 0,-0.30798 -0.0206,-0.59543 l 0.28746,0.16426 h 1.08818 l 0.14371,-0.16426 0.26692,0.24639 z m -0.65702,1.51936 0.36958,-0.41063 h -0.9034 q -0.26691,0 -0.49277,0.0616 l -0.18478,-0.18479 h 1.60148 l 0.18478,-0.20531 0.30798,0.32851 q -0.14372,0 -0.3901,0.14371 -0.22586,0.14373 -0.43117,0.30799 l 0.16425,0.0821 -0.16425,0.1232 v 0.14372 l 0.98552,-0.10266 0.0206,0.0821 -1.00605,0.16425 v 0.78021 q 0,0.3285 -0.4517,0.49276 -0.0206,-0.26691 -0.49276,-0.41063 v -0.0821 q 0.3285,0.0616 0.49276,0.0616 0.10266,0 0.14372,-0.0411 0.0411,-0.0411 0.0411,-0.16425 v -0.59542 q -1.10871,0.20532 -1.25243,0.3285 l -0.16426,-0.41063 q 0.53383,0 1.41669,-0.0821 0,-0.20533 -0.0206,-0.5133 z m -1.45775,-2.17637 h 2.03264 l 0.22585,-0.22585 0.34904,0.34904 h -1.92998 q -0.30798,0 -0.49277,0.0616 z m 3.18242,2.66913 q -0.32851,-0.82128 -0.39011,-1.86839 -0.20531,0.4517 -0.45169,0.75967 l -0.0616,-0.0411 q 0.45169,-0.82127 0.75967,-2.38169 l 0.47222,0.24639 q -0.14371,0.0616 -0.22584,0.22584 -0.0616,0.16426 -0.30798,0.80074 h 1.06765 l 0.24638,-0.24637 0.36957,0.36957 h -0.65701 q -0.12319,1.41669 -0.5133,2.1353 0.47224,0.75967 1.14979,0.9034 v 0.0821 q -0.34905,0.0206 -0.43117,0.22584 -0.53383,-0.36957 -0.88287,-0.98552 -0.63648,0.71861 -1.7452,1.06765 l -0.041,-0.0616 q 0.92393,-0.3285 1.64254,-1.2319 z m -0.24638,-2.1353 -0.0821,0.16425 q 0.16426,1.04712 0.47223,1.6836 0.28745,-0.71861 0.39011,-1.84785 z"
           style="font-style:normal;font-variant:normal;font-weight:normal;font-stretch:normal;font-family:Cambria;-inkscape-font-specification:Cambria;fill:#1a1a1a;stroke-width:0.32850832"
           id="path1053"
           inkscape:connector-curvature="0" />
        <path
           d="m 251.3413,132.70657 0.77596,-0.12251 0.0205,0.0817 q -0.2042,0.0408 -0.79638,0.18378 v 0.67385 q 0,0.24504 -0.0817,0.30631 -0.0817,0.0613 -0.32672,0.14293 -0.0204,-0.22461 -0.55134,-0.36756 v -0.0817 q 0.36756,0.0408 0.53092,0.0408 0.18378,0.0204 0.18378,-0.14295 v -0.5105 q -0.36756,0.0817 -0.65345,0.16336 -0.28588,0.0817 -0.40839,0.18378 l -0.22463,-0.36756 q 0.65345,-0.0408 1.28647,-0.14293 v -0.49009 h -0.75555 q -0.26546,0 -0.49007,0.0613 l -0.18378,-0.18378 h 1.4294 v -0.44924 q -0.49009,0.0612 -1.02101,0.0817 v -0.0817 q 0.65345,-0.0817 1.14352,-0.18378 0.49009,-0.12253 0.7147,-0.26546 l 0.28588,0.34713 q -0.32671,0 -0.87806,0.10211 v 0.44924 h 1.1231 q -0.0613,-0.42882 -0.12251,-0.98016 l 0.46965,0.22461 -0.14294,0.12253 q 0,0.24503 0.0613,0.63302 h 0.9189 l 0.28589,-0.28589 0.40839,0.4084 h -1.59276 q 0.0817,0.44924 0.24504,0.75555 0.32673,-0.24504 0.6126,-0.67386 l 0.34714,0.26546 q -0.18377,0.0613 -0.36755,0.24504 -0.20421,0.18378 -0.46967,0.38797 0.18378,0.18378 0.38799,0.26546 0.20419,0.0817 0.36755,0.1021 0.16337,0.0205 0.18378,-0.1021 0.0205,-0.14294 0.12252,-0.55133 h 0.0817 q -0.0408,0.42882 -0.0205,0.59218 0.0205,0.16335 0.1021,0.28588 0.0613,0.10209 -0.16336,0.10209 -0.22462,0 -0.63302,-0.12252 -0.38798,-0.12252 -0.65344,-0.42881 -0.49008,0.28588 -1.3273,0.49007 l -0.0408,-0.0817 q 0.77595,-0.24503 1.24562,-0.6126 -0.20421,-0.36756 -0.28589,-0.9189 h -1.14352 z m 1.67444,-1.47023 q 0.34714,0.12252 0.49009,0.2042 0.16336,0.0613 0.18377,0.20419 0.0408,0.14295 -0.0408,0.22463 -0.0613,0.0613 -0.0817,0.0613 -0.0817,0 -0.14294,-0.14293 -0.12252,-0.18378 -0.44923,-0.49009 z m -1.14352,-0.73513 h -0.85763 q -0.26546,0 -0.49009,0.0613 l -0.18378,-0.18378 h 1.5315 v -0.38798 h -1.16394 q -0.26546,0 -0.49007,0.0612 l -0.18378,-0.18378 h 1.3273 q -0.1021,-0.32672 -0.38799,-0.65343 l 0.0613,-0.0408 q 0.4084,0.16336 0.49008,0.26546 0.0817,0.1021 0.0817,0.16336 0,0.12253 -0.14293,0.26546 h 0.98016 q 0.18377,-0.36755 0.28587,-0.71469 l 0.38798,0.24504 q -0.16335,0.0408 -0.28588,0.18378 -0.12251,0.12251 -0.26546,0.28587 h 0.73512 l 0.3063,-0.30629 0.38798,0.42882 h -1.85822 v 0.38798 h 0.95974 l 0.26546,-0.24505 0.34714,0.36756 h -1.57234 v 0.42882 h 1.34773 l 0.30629,-0.30629 0.40841,0.42881 h -3.67561 q -0.26546,0 -0.49007,0.0613 l -0.18378,-0.18378 h 2.02157 z"
           style="font-style:normal;font-variant:normal;font-weight:normal;font-stretch:normal;font-family:Cambria;-inkscape-font-specification:Cambria;fill:#1a1a1a;stroke-width:0.32671976"
           id="path1055"
           inkscape:connector-curvature="0" />
        <path
           inkscape:connector-curvature="0"
           d="m 255.54003,130.46617 v 0.56707 h 0.99236 v -0.56707 z m -0.30378,3.58466 q 0.0202,-0.62782 0.0202,-1.82271 0.0203,-1.21514 -0.0202,-2.79481 l 0.32403,0.22277 h 0.91136 l 0.18227,-0.24303 0.32404,0.28353 -0.18228,0.16202 q 0,1.01262 0.0203,1.33665 l -0.28354,0.16202 v -0.20252 h -0.99236 v 2.69356 z m 0.30378,-4.27324 v 0.56707 h 0.99236 v -0.56707 z m 2.28851,0.68858 v 0.56707 h 0.97211 v -0.56707 z m -0.28353,0.8911 q 0.0203,-0.56706 0.0203,-0.99236 0,-0.4253 -0.0203,-0.9316 l 0.30378,0.22277 h 0.8911 l 0.20253,-0.26328 0.34429,0.30378 -0.20253,0.14177 v 3.68592 q 0,0.16202 -0.081,0.28353 -0.081,0.12151 -0.36454,0.24303 -0.16201,-0.34429 -0.66832,-0.4658 v -0.081 q 0.38479,0.0405 0.62782,0.0405 0.14176,0 0.16202,-0.0405 0.0405,-0.0405 0.0405,-0.20253 v -2.14674 h -0.97211 v 0.081 z m 0.28353,-1.57968 v 0.56707 h 0.97211 v -0.56707 z"
           style="font-style:normal;font-variant:normal;font-weight:normal;font-stretch:normal;font-family:Cambria;-inkscape-font-specification:Cambria;fill:#1a1a1a;stroke-width:0.32403675"
           id="path1057" />
      </g>
    </g>
  </g>
</svg>
